<?xml version="1.0" standalone="no"?>
<!DOCTYPE svg PUBLIC "-//W3C//DTD SVG 20010904//EN"
 "http://www.w3.org/TR/2001/REC-SVG-20010904/DTD/svg10.dtd">
<svg version="1.0" xmlns="http://www.w3.org/2000/svg"
 width="832.000000pt" height="832.000000pt" viewBox="0 0 832.000000 832.000000"
 preserveAspectRatio="xMidYMid meet">
<metadata>
Created by potrace 1.14, written by Peter Selinger 2001-2017
</metadata>
<g transform="translate(0.000000,832.000000) scale(0.100000,-0.100000)"
fill="#000000" stroke="none">
<path d="M4001 7292 c-1 -7 -5 -11 -10 -7 -5 3 -13 0 -16 -6 -4 -5 -14 -8 -22
-5 -8 3 -12 2 -9 -2 3 -5 -8 -16 -25 -26 -20 -12 -29 -13 -29 -5 0 7 -3 9 -7
5 -5 -4 -7 -10 -5 -12 2 -3 -8 -14 -23 -25 -14 -12 -22 -25 -19 -31 4 -7 2 -8
-4 -4 -6 3 -17 -1 -24 -9 -7 -9 -21 -25 -30 -36 -10 -10 -18 -23 -18 -29 0 -5
-4 -10 -10 -10 -5 0 -6 -7 -3 -17 4 -11 3 -14 -5 -9 -8 5 -12 0 -12 -14 0 -12
-4 -19 -9 -16 -5 4 -8 -2 -7 -11 2 -10 0 -30 -5 -45 -5 -19 -4 -28 4 -29 7 0
2 -4 -11 -10 -15 -6 -21 -13 -15 -21 4 -7 8 -20 8 -28 0 -8 4 -21 9 -29 6 -10
5 -12 -2 -7 -8 5 -12 -1 -12 -17 0 -14 8 -28 18 -32 16 -7 15 -8 -3 -15 -15
-7 -16 -9 -4 -9 12 -1 15 -8 11 -27 -3 -19 -1 -25 7 -20 7 5 11 -2 11 -19 0
-15 4 -24 10 -20 6 3 10 -1 10 -9 0 -28 1 -31 16 -39 8 -5 12 -12 9 -18 -4 -5
-2 -9 4 -9 6 0 15 -10 22 -21 9 -17 8 -20 -3 -13 -10 6 -11 5 -1 -7 9 -11 8
-18 -1 -31 -7 -10 -17 -14 -21 -10 -5 4 -5 -1 -2 -10 3 -10 3 -17 -1 -17 -19
3 -33 -2 -27 -10 3 -5 -7 -22 -22 -37 -16 -16 -27 -32 -26 -36 2 -4 -1 -8 -6
-8 -17 0 -42 -32 -37 -46 3 -8 0 -13 -7 -11 -7 1 -11 -4 -9 -12 2 -8 -3 -11
-13 -8 -9 4 -15 1 -15 -8 0 -8 -10 -19 -21 -26 -15 -8 -18 -13 -10 -19 9 -5 6
-9 -8 -13 -12 -3 -21 -13 -21 -22 0 -9 -4 -14 -8 -11 -5 3 -15 -6 -22 -19 -7
-13 -17 -22 -22 -19 -4 3 -8 1 -8 -4 0 -5 -7 -9 -15 -9 -8 0 -12 5 -8 10 3 5
-3 6 -15 3 -12 -4 -26 -1 -36 9 -9 10 -16 12 -16 5 0 -6 -5 -8 -10 -5 -6 4 -7
12 -3 18 5 8 2 8 -9 -1 -8 -7 -24 -9 -33 -5 -14 5 -16 3 -10 -8 7 -11 6 -12
-6 -2 -17 14 -30 14 -46 2 -7 -7 -14 -6 -19 2 -5 8 -3 10 7 4 8 -5 2 4 -13 20
-16 15 -28 35 -28 44 0 9 -8 27 -17 40 -12 18 -13 22 -2 16 8 -5 5 2 -6 15
-11 13 -14 20 -6 15 9 -5 7 1 -4 19 -10 14 -13 26 -9 26 5 0 5 4 -1 8 -17 12
-41 47 -27 38 7 -4 5 6 -6 26 -24 43 -33 78 -19 78 6 0 8 3 4 6 -9 9 19 34 39
34 10 0 14 3 11 7 -4 3 1 12 11 20 9 8 11 12 5 8 -8 -4 -11 -1 -7 9 3 9 11 14
17 13 7 -1 11 4 10 11 -2 6 2 12 7 12 5 0 9 3 8 8 -1 4 3 16 9 27 6 11 9 28 8
38 -3 16 -1 16 13 5 15 -12 15 -11 1 12 -16 25 -15 55 2 45 5 -4 6 1 3 9 -3 9
-10 16 -15 16 -6 0 -5 9 1 20 7 14 7 20 0 20 -5 0 -10 5 -10 11 0 5 4 8 9 5
13 -9 8 28 -6 37 -6 4 -10 16 -8 27 2 13 -2 20 -11 20 -8 0 -12 5 -9 10 9 14
-85 106 -103 102 -8 -2 -12 0 -9 5 3 4 -2 17 -10 28 -12 15 -14 16 -10 3 4
-12 2 -15 -9 -11 -7 3 -14 8 -14 12 0 5 -21 9 -73 11 -10 1 -15 6 -11 12 5 7
2 8 -7 2 -20 -12 -38 -14 -45 -3 -3 5 -11 9 -17 9 -7 0 -6 -4 3 -11 12 -8 9
-10 -12 -6 -16 2 -28 0 -28 -5 0 -5 -6 -8 -12 -7 -25 3 -39 -1 -34 -9 3 -5 -1
-9 -9 -10 -8 -1 -21 -3 -29 -4 -8 -1 -15 -4 -14 -7 2 -19 -3 -31 -11 -26 -6 3
-15 -4 -21 -15 -6 -11 -16 -17 -22 -14 -7 4 -8 3 -4 -4 4 -7 2 -12 -4 -12 -6
0 -8 -4 -5 -10 3 -5 -1 -10 -9 -10 -9 0 -15 -3 -15 -7 3 -20 -2 -34 -11 -28
-5 3 -10 -1 -10 -9 0 -9 -6 -16 -12 -16 -8 0 -9 -3 -3 -8 13 -9 18 -35 5 -27
-10 6 -13 -5 -12 -62 0 -19 -5 -33 -11 -33 -7 0 -6 -4 3 -10 13 -9 13 -11 0
-20 -14 -9 -6 -15 15 -10 5 1 7 -2 3 -5 -4 -4 -3 -16 2 -26 7 -12 6 -20 -2
-25 -7 -5 -9 -2 -4 7 4 8 1 6 -7 -3 -8 -10 -17 -15 -20 -11 -4 3 -7 1 -7 -5 0
-7 -6 -11 -12 -9 -7 1 -12 -3 -11 -9 1 -7 -6 -10 -17 -7 -12 3 -20 0 -20 -6 0
-7 -4 -10 -9 -7 -5 4 -11 1 -13 -4 -2 -6 -13 -12 -25 -13 -12 0 -20 -4 -18 -7
2 -3 -5 -12 -17 -19 -16 -10 -19 -10 -12 1 4 7 -4 3 -18 -9 -13 -13 -34 -23
-46 -23 -12 0 -22 -4 -22 -10 0 -5 -7 -10 -15 -10 -8 0 -15 -5 -15 -11 0 -5
-4 -7 -10 -4 -5 3 -10 -1 -10 -10 0 -9 -4 -14 -9 -10 -5 3 -13 0 -16 -6 -4 -5
-13 -8 -20 -5 -7 2 -16 -2 -19 -11 -5 -13 -9 -13 -23 -2 -12 10 -14 10 -9 2 4
-8 2 -13 -8 -13 -8 0 -18 5 -22 12 -5 7 -2 8 7 3 8 -4 5 1 -6 12 -11 11 -23
19 -27 16 -5 -2 -8 1 -8 7 0 7 -6 10 -12 8 -7 -3 -21 4 -32 13 -11 10 -29 19
-40 19 -50 1 -74 6 -69 13 2 4 -1 7 -6 7 -6 0 -11 -6 -11 -12 0 -9 -3 -10 -8
-2 -10 15 -40 14 -46 -2 -3 -8 -12 -11 -20 -8 -8 3 -17 0 -21 -5 -3 -6 -11 -9
-16 -6 -5 4 -9 1 -9 -5 0 -6 -4 -9 -9 -5 -6 3 -15 -4 -21 -15 -6 -11 -15 -18
-21 -15 -5 4 -9 3 -8 -2 3 -18 -1 -34 -8 -30 -10 4 -47 -35 -51 -53 -2 -8 -11
-20 -20 -28 -9 -7 -11 -11 -4 -7 7 4 12 0 12 -9 0 -9 -5 -16 -11 -16 -7 0 -9
-10 -7 -25 3 -14 1 -25 -6 -25 -6 0 -4 -5 4 -10 11 -7 11 -10 2 -10 -10 0 -10
-5 -1 -22 7 -13 12 -24 11 -25 -5 -8 12 -63 19 -63 5 0 9 -9 9 -20 0 -11 5
-20 10 -20 6 0 10 -6 10 -14 0 -8 13 -23 29 -32 17 -10 28 -21 25 -25 -2 -4 7
-6 21 -5 13 2 22 -1 19 -5 -3 -5 2 -9 11 -9 9 0 13 -4 10 -10 -3 -6 1 -7 9 -4
10 4 16 1 16 -7 0 -7 3 -9 7 -6 3 4 12 2 19 -4 10 -8 11 -16 4 -29 -7 -13 -7
-21 0 -25 5 -3 10 -11 10 -16 0 -6 -4 -8 -9 -4 -6 3 -6 -7 0 -27 11 -40 11
-40 1 -34 -4 2 -8 -4 -8 -14 0 -10 4 -16 8 -14 12 8 9 -11 -4 -24 -7 -7 -8
-12 -2 -12 6 0 11 -13 11 -30 0 -16 -3 -27 -7 -25 -9 5 -6 -33 3 -41 11 -12 8
-26 -4 -18 -8 5 -8 1 0 -14 13 -24 6 -30 -31 -28 -14 1 -25 -1 -23 -4 5 -8
-22 -29 -30 -22 -3 4 -15 -4 -27 -18 -11 -14 -17 -18 -13 -10 4 8 -5 2 -19
-13 -14 -15 -26 -25 -26 -22 0 3 -10 1 -21 -6 -12 -6 -19 -7 -16 -2 4 6 -6 16
-21 24 -15 8 -34 21 -42 29 -14 14 -14 14 -6 0 5 -8 -2 -4 -16 10 -39 41 -72
67 -63 50 8 -15 7 -15 -51 38 -11 10 -28 18 -37 16 -10 -1 -14 2 -11 8 3 5 -3
12 -15 15 -11 3 -18 10 -14 16 4 7 0 8 -13 3 -10 -4 -15 -4 -11 0 4 4 0 18 -9
31 -12 19 -13 27 -3 39 6 7 9 25 7 39 -3 14 -1 25 5 25 6 0 2 7 -9 16 -10 8
-14 13 -7 10 8 -5 8 0 0 19 -7 14 -15 25 -19 25 -5 0 -8 5 -8 11 0 5 5 7 12 3
7 -5 8 -3 4 5 -5 7 -10 10 -13 7 -3 -2 -22 13 -43 36 -24 25 -43 37 -51 32 -8
-5 -10 -3 -4 6 6 10 4 12 -8 7 -10 -3 -17 -2 -17 3 0 6 -5 10 -11 10 -5 0 -7
-5 -3 -12 4 -7 3 -8 -4 -4 -7 4 -12 15 -12 24 0 14 -2 15 -9 3 -8 -12 -12 -12
-25 -2 -12 10 -16 11 -16 1 0 -7 -7 -10 -15 -6 -8 3 -15 1 -15 -4 0 -6 -3 -9
-7 -8 -15 4 -53 -13 -53 -23 0 -6 -4 -7 -10 -4 -5 3 -10 1 -10 -4 0 -6 -7 -11
-15 -11 -14 0 -19 -12 -16 -32 0 -5 -6 -8 -15 -8 -8 0 -12 -4 -9 -10 3 -5 1
-10 -5 -10 -7 0 -9 -7 -6 -16 3 -8 2 -13 -3 -9 -11 6 -22 -60 -16 -100 9 -65
18 -95 25 -90 4 2 13 -7 20 -20 7 -14 19 -25 26 -25 8 0 11 -6 7 -17 -4 -10
-2 -14 5 -9 6 3 13 2 17 -4 4 -6 11 -8 16 -5 5 4 9 2 9 -2 0 -5 9 -14 21 -21
12 -8 18 -9 15 -4 -3 5 5 10 19 10 14 0 22 -5 18 -11 -4 -6 -1 -7 8 -1 23 14
49 15 49 1 0 -9 3 -8 9 2 5 7 15 11 22 9 8 -3 20 1 27 9 8 7 18 11 23 7 5 -3
8 0 7 7 -5 22 32 22 50 0 9 -11 24 -21 32 -23 8 -2 25 -13 37 -25 12 -12 23
-19 25 -14 2 4 12 -1 23 -12 11 -11 14 -16 6 -12 -10 5 -12 4 -7 -4 4 -6 11
-9 16 -6 5 3 15 -1 23 -9 8 -8 17 -12 21 -9 3 4 6 -1 6 -10 0 -10 8 -17 18
-17 10 0 24 -9 32 -19 7 -11 17 -18 22 -15 4 3 8 0 8 -7 0 -7 3 -10 6 -6 10
10 34 -20 34 -42 0 -11 -5 -23 -10 -26 -8 -5 -7 -12 2 -23 7 -10 8 -14 3 -9
-13 11 -34 -45 -22 -60 6 -9 6 -13 -3 -13 -10 0 -10 -3 0 -15 10 -12 10 -15
-1 -15 -12 0 -12 -2 0 -9 18 -11 0 -22 -39 -23 -17 -1 -33 -5 -36 -10 -3 -4
-10 -6 -15 -3 -5 4 -9 0 -9 -7 0 -9 -3 -9 -10 2 -5 8 -10 10 -10 3 0 -6 -9 -9
-20 -6 -11 3 -20 0 -20 -6 0 -6 -7 -8 -17 -4 -12 5 -14 3 -8 -8 5 -8 -2 -5
-14 5 -21 19 -21 19 -15 1 6 -14 4 -16 -7 -9 -17 11 -60 14 -54 3 8 -11 -27
-21 -38 -10 -6 6 -18 4 -33 -6 -13 -8 -24 -12 -24 -9 0 4 -9 2 -20 -4 -13 -7
-20 -7 -20 -1 0 7 -9 7 -26 1 -33 -13 -34 -13 -34 6 0 8 -4 13 -9 10 -11 -7
-19 12 -16 41 1 14 -5 25 -17 29 -10 3 -16 9 -13 14 3 5 -3 17 -14 27 -11 9
-17 21 -14 27 3 6 3 8 -2 4 -9 -8 -35 16 -35 32 0 7 -7 9 -17 6 -10 -4 -14 -4
-10 0 3 4 -3 16 -16 26 -12 11 -22 24 -22 30 0 6 -11 13 -25 15 -13 2 -27 7
-30 11 -5 7 -27 14 -47 15 -7 0 -13 4 -13 9 0 4 -11 8 -25 8 -14 0 -25 6 -25
13 0 8 -3 8 -8 1 -8 -11 -52 -14 -52 -3 0 4 -11 9 -25 11 -14 3 -25 1 -25 -5
0 -5 -7 -4 -15 3 -12 10 -15 10 -15 -1 0 -11 -2 -11 -10 1 -5 8 -10 10 -10 4
0 -7 -8 -11 -17 -10 -11 0 -17 -5 -15 -14 3 -12 1 -12 -9 -3 -9 9 -19 9 -45
-2 -25 -10 -34 -11 -38 -2 -2 7 -5 4 -5 -5 -1 -16 -18 -23 -43 -19 -5 0 -8 -6
-8 -15 0 -10 -5 -14 -16 -10 -8 3 -12 2 -9 -4 3 -6 1 -10 -5 -10 -6 0 -25 -15
-43 -32 -17 -18 -35 -32 -39 -31 -4 2 -7 -3 -5 -10 1 -6 -4 -11 -11 -9 -8 1
-11 -2 -7 -8 3 -5 1 -10 -5 -10 -6 0 -8 -4 -5 -10 3 -5 1 -10 -5 -10 -6 0 -9
-4 -5 -9 3 -6 -3 -14 -12 -20 -10 -6 -14 -11 -9 -11 5 0 3 -7 -4 -15 -7 -8 -9
-15 -5 -15 4 0 0 -12 -10 -26 -9 -15 -12 -24 -7 -20 6 3 2 -11 -8 -31 -10 -21
-14 -39 -10 -41 5 -2 5 -14 0 -28 -6 -15 -6 -24 1 -24 6 0 6 -7 -1 -20 -8 -14
-8 -20 0 -20 7 0 7 -7 -1 -21 -8 -17 -8 -23 1 -29 7 -4 10 -12 6 -18 -3 -6 -2
-13 3 -17 6 -3 8 -11 5 -18 -6 -17 20 -69 30 -60 4 4 4 0 0 -10 -3 -9 -1 -17
4 -17 6 0 9 -9 7 -20 -2 -11 1 -23 7 -26 7 -5 8 -2 3 6 -5 9 -4 11 3 6 7 -4
12 -13 12 -19 0 -7 9 -20 20 -30 12 -10 18 -22 15 -27 -3 -6 0 -10 8 -10 8 0
26 -12 41 -26 14 -15 26 -23 26 -18 0 5 5 1 11 -9 6 -9 14 -15 20 -12 5 4 9 1
9 -4 0 -6 10 -11 23 -11 18 0 19 -2 7 -11 -12 -9 -11 -10 8 -6 12 3 22 2 22
-3 0 -4 7 -11 16 -14 9 -3 12 -2 8 5 -3 6 3 5 15 -3 21 -13 30 -68 11 -68 -5
0 -9 -15 -8 -33 2 -48 -7 -57 -42 -47 -17 5 -28 5 -25 0 7 -11 -25 -23 -54
-21 -19 2 -23 -1 -17 -15 4 -10 4 -15 0 -11 -8 8 -55 -19 -67 -40 -5 -7 -13
-10 -19 -7 -6 4 -8 3 -5 -3 8 -12 -17 -36 -26 -26 -6 6 -11 -20 -8 -39 0 -5
-6 -8 -15 -8 -8 0 -12 -4 -9 -10 3 -6 1 -10 -6 -10 -7 0 -9 -3 -6 -6 3 -4 2
-16 -4 -27 -8 -14 -8 -18 1 -12 14 9 10 -27 -5 -37 -6 -5 -5 -8 3 -8 10 0 10
-5 1 -21 -8 -16 -8 -20 1 -14 14 9 10 -27 -5 -37 -6 -5 -5 -8 4 -8 10 0 11 -3
2 -14 -7 -8 -8 -17 -3 -20 5 -3 8 -19 6 -36 -2 -17 0 -29 5 -26 5 3 12 -5 15
-19 4 -14 11 -25 17 -25 6 0 7 -5 4 -10 -4 -6 -2 -9 3 -8 12 4 62 -49 55 -56
-3 -3 4 -4 15 -1 12 2 21 1 19 -3 -1 -4 1 -8 6 -10 4 -1 16 -11 28 -23 16 -16
23 -18 35 -8 12 10 13 9 7 -7 -6 -17 -5 -18 12 -4 15 12 17 12 10 1 -6 -11 -4
-13 7 -8 9 3 21 0 27 -6 8 -8 11 -8 11 1 0 7 5 12 10 12 6 0 10 -5 10 -11 0
-6 7 -17 15 -25 11 -11 12 -21 5 -40 -6 -14 -6 -23 -1 -20 14 9 21 -20 8 -34
-9 -9 -9 -11 -1 -7 7 4 14 0 18 -8 3 -8 0 -14 -7 -12 -7 1 -11 -4 -10 -10 2
-7 -9 -16 -24 -20 -15 -3 -34 -12 -41 -20 -8 -7 -18 -11 -23 -8 -5 4 -9 -1 -9
-10 0 -9 -4 -13 -10 -10 -5 3 -10 1 -10 -5 0 -6 -4 -8 -10 -5 -5 3 -10 0 -10
-8 0 -8 -7 -17 -15 -21 -8 -3 -15 -12 -15 -21 0 -8 -3 -15 -7 -15 -5 0 -13
-11 -20 -25 -8 -19 -8 -24 0 -19 7 3 4 -1 -5 -9 -10 -8 -15 -17 -11 -20 3 -4
2 -7 -4 -7 -6 0 -10 -42 -10 -105 -1 -73 2 -105 10 -105 8 0 7 -3 -1 -9 -11
-6 -10 -10 4 -15 16 -6 16 -8 4 -16 -12 -8 -12 -10 -1 -10 7 0 11 -6 7 -15 -3
-8 0 -14 6 -12 6 1 17 -8 23 -20 7 -13 14 -20 17 -17 4 3 9 -4 13 -15 3 -12
13 -21 21 -21 8 0 12 -4 9 -10 -3 -5 1 -10 10 -10 9 0 13 -4 10 -10 -3 -5 0
-7 8 -4 8 3 18 0 23 -7 5 -8 3 -10 -6 -4 -9 6 -11 4 -6 -4 5 -7 14 -10 22 -7
20 8 45 -4 37 -17 -4 -6 0 -8 10 -4 10 3 17 2 17 -4 0 -6 4 -7 10 -4 5 3 10 1
10 -4 0 -6 5 -11 11 -11 5 0 8 4 5 8 -6 10 35 10 50 0 6 -4 14 -4 18 -1 10 11
36 12 36 2 0 -5 11 -4 25 1 14 5 25 7 25 3 0 -4 7 2 15 13 10 13 14 14 15 5 0
-10 3 -11 13 -2 8 6 17 8 20 4 4 -3 7 1 7 10 0 10 5 17 11 17 14 0 89 67 82
73 -2 3 5 8 16 12 12 3 19 11 16 16 -4 5 -2 9 4 9 6 0 8 7 4 15 -3 10 -1 15 7
13 7 -2 14 9 15 25 2 16 9 35 16 43 9 11 8 14 -2 14 -11 0 -11 2 1 10 8 5 10
10 4 10 -6 0 -10 15 -10 34 0 19 4 32 8 30 5 -3 8 0 8 5 0 6 -3 11 -7 11 -5 0
-9 20 -9 45 -1 25 -8 52 -15 62 -12 15 -12 16 1 8 11 -6 10 -3 -3 12 -9 11
-14 23 -10 27 5 4 3 6 -2 4 -6 -2 -11 1 -12 5 -1 5 -11 17 -22 26 -11 10 -18
21 -14 25 6 5 -11 10 -28 8 -4 -1 -5 7 -2 18 3 11 9 18 13 15 5 -3 6 3 3 14
-3 10 1 22 8 26 8 5 10 4 5 -3 -4 -7 -5 -12 -1 -12 7 0 29 52 27 63 -1 4 3 7
8 7 5 0 9 5 7 12 -1 7 5 12 13 13 9 0 14 8 12 18 -2 11 4 17 15 17 15 0 16 2
3 10 -13 8 -12 10 4 10 11 0 17 3 13 6 -6 6 31 84 40 84 2 0 1 -5 -3 -12 -4
-7 -3 -8 5 -4 6 4 9 11 6 16 -3 5 1 15 9 23 8 8 12 17 9 21 -4 3 2 6 13 6 15
0 16 2 5 9 -11 7 -10 11 5 20 11 6 15 11 11 11 -5 0 2 14 14 32 14 19 17 29 8
24 -7 -4 -4 1 9 10 12 9 22 21 22 27 0 5 10 18 22 28 13 12 16 19 7 19 -20 0
22 28 46 30 35 4 46 0 40 -12 -4 -7 0 -5 7 4 9 10 19 13 27 9 14 -9 72 9 65
20 -2 4 3 10 12 13 10 4 13 2 8 -7 -11 -18 27 12 53 43 12 14 22 33 23 43 0 9
5 17 11 17 5 0 8 4 4 9 -3 5 -1 13 5 16 7 4 8 11 1 18 -14 18 -14 29 1 38 11
7 11 9 -1 9 -10 0 -11 3 -2 14 8 10 9 16 1 21 -15 9 -13 28 3 19 6 -4 4 2 -6
13 -9 11 -14 23 -10 26 3 4 1 7 -6 7 -7 0 -10 4 -7 8 2 4 1 14 -4 22 -11 18 7
53 22 44 7 -4 8 -3 4 4 -4 7 -1 12 6 12 10 0 10 2 -1 9 -11 7 -7 12 15 25 16
8 25 15 21 16 -5 0 -1 7 7 16 9 8 13 21 9 27 -4 7 0 8 11 4 10 -4 15 -3 11 3
-3 5 3 20 14 32 12 12 21 27 21 34 0 6 13 26 29 43 16 17 26 31 23 31 -3 0 3
7 14 15 10 8 15 15 11 15 -4 0 5 12 20 26 15 14 21 23 13 19 -8 -4 -6 1 5 10
11 9 19 21 17 26 -1 5 5 12 13 15 8 3 13 9 10 13 -6 11 28 10 42 -1 10 -8 25
-12 78 -22 6 -1 16 -6 24 -10 10 -6 12 -5 7 2 -5 8 1 12 14 12 14 0 19 -4 14
-12 -4 -7 2 -5 13 5 13 11 23 14 27 8 7 -10 78 -7 96 4 5 3 10 1 10 -5 0 -6 4
-9 9 -6 11 7 23 -22 14 -36 -4 -7 -1 -8 7 -3 10 6 12 4 7 -8 -3 -9 0 -18 9
-21 8 -3 14 -12 14 -21 0 -8 4 -15 10 -15 5 0 6 -7 3 -17 -4 -10 -2 -14 4 -10
13 8 11 -19 -2 -30 -4 -4 -5 -2 0 6 5 9 4 12 -3 7 -6 -3 -9 -15 -7 -26 2 -11
0 -20 -4 -20 -6 0 -7 -34 -1 -50 1 -3 1 -9 0 -15 -7 -31 -6 -54 1 -49 5 3 9 1
9 -5 0 -5 -5 -13 -10 -16 -6 -4 -7 -11 -4 -17 4 -7 2 -8 -4 -4 -7 4 -12 1 -12
-8 0 -9 -5 -15 -12 -14 -7 2 -12 -4 -13 -12 -1 -8 -7 -14 -14 -12 -7 1 -10 -2
-7 -7 3 -5 -8 -22 -25 -39 -19 -19 -28 -35 -24 -43 5 -7 4 -10 -3 -5 -12 7
-35 -28 -24 -38 3 -4 -2 -4 -13 0 -11 4 -17 4 -13 -1 4 -4 -2 -16 -14 -26 -11
-11 -17 -19 -13 -19 5 0 -10 -18 -33 -39 -22 -21 -38 -42 -35 -45 3 -3 -2 -8
-11 -12 -9 -3 -13 -10 -10 -15 3 -5 -2 -9 -10 -9 -9 0 -15 -4 -13 -9 1 -4 -9
-18 -23 -30 -14 -13 -19 -19 -11 -15 7 4 3 -7 -9 -24 -13 -17 -27 -29 -32 -26
-4 3 -8 -2 -8 -10 0 -9 -5 -16 -11 -16 -6 0 -9 -7 -5 -15 5 -13 -5 -20 -26
-16 -5 0 -7 -5 -5 -12 1 -6 -4 -11 -10 -10 -7 2 -12 -3 -10 -10 1 -6 -4 -11
-11 -9 -8 1 -11 -2 -7 -8 3 -5 1 -10 -4 -10 -6 0 -10 -3 -10 -7 3 -20 -3 -31
-32 -52 -18 -13 -29 -19 -25 -13 3 6 2 13 -4 17 -5 3 -10 2 -10 -4 0 -5 -13
-9 -30 -9 -18 1 -27 5 -24 12 3 6 -3 1 -14 -12 -13 -14 -27 -20 -39 -16 -14 4
-15 4 -4 -4 11 -8 9 -11 -8 -17 -29 -9 -39 -37 -38 -105 0 -53 13 -80 38 -80
7 0 9 -3 6 -6 -4 -4 3 -15 14 -25 17 -15 22 -30 22 -80 1 -39 -4 -63 -12 -69
-10 -5 -10 -9 -2 -15 9 -5 9 -10 1 -20 -8 -10 -8 -15 0 -20 8 -5 8 -11 -1 -21
-9 -11 -8 -14 2 -14 11 0 11 -2 1 -9 -14 -9 -13 -32 3 -43 6 -4 2 -8 -7 -8
-10 0 -17 -6 -15 -12 1 -7 -6 -12 -15 -12 -10 1 -18 -3 -18 -9 0 -6 -3 -7 -7
-4 -3 4 -14 0 -24 -9 -13 -12 -19 -12 -25 -3 -5 8 -3 10 6 4 9 -6 11 -4 5 5
-6 10 -12 8 -24 -7 -9 -11 -28 -28 -43 -38 -15 -9 -25 -21 -22 -26 3 -5 0 -8
-7 -7 -7 2 -13 -2 -14 -9 0 -7 -9 -19 -20 -28 -11 -9 -13 -13 -5 -9 11 6 10 2
-2 -13 -10 -11 -18 -30 -18 -42 0 -12 -4 -20 -9 -16 -6 3 -8 -3 -6 -15 2 -11
0 -22 -6 -25 -5 -4 -4 -15 3 -28 14 -26 14 -27 -4 -38 -10 -7 -10 -9 0 -9 6 0
12 -5 12 -11 0 -5 -6 -7 -12 -3 -7 4 -5 -2 5 -13 9 -11 17 -27 17 -35 0 -9 6
-19 13 -21 9 -4 9 -6 0 -6 -7 -1 11 -25 40 -55 28 -29 55 -52 59 -50 3 3 13
-3 21 -11 9 -8 23 -15 32 -15 9 0 13 -5 9 -11 -4 -8 0 -8 15 0 16 9 21 9 21 0
0 -9 3 -9 14 0 10 8 16 9 21 1 4 -7 12 -7 26 0 14 8 19 7 19 -1 0 -8 4 -8 15
1 8 7 15 9 15 5 0 -4 6 -3 13 4 10 8 17 7 25 -1 9 -9 12 -9 12 1 0 7 4 10 8 7
5 -3 14 4 22 14 8 10 17 17 21 15 9 -6 80 65 74 75 -3 4 2 10 10 14 9 3 12 12
8 22 -4 11 -2 15 4 11 6 -4 13 0 16 7 3 8 1 17 -6 20 -9 3 -8 5 1 5 7 1 10 6
7 11 -3 6 -2 10 4 10 5 0 8 8 7 18 -4 21 11 32 47 32 16 0 26 3 24 8 -7 10 45
9 62 -2 9 -6 12 -5 8 1 -9 14 44 14 63 0 8 -6 12 -7 8 -3 -4 5 0 15 9 21 14
11 20 10 31 -4 10 -11 11 -12 6 -1 -4 8 -3 11 1 7 9 -7 15 -28 17 -54 1 -7 5
-13 10 -13 5 0 6 -4 3 -10 -3 -5 2 -10 12 -10 15 0 16 -2 3 -10 -13 -9 -7 -14
12 -11 5 0 7 -2 5 -7 -1 -4 16 -25 38 -46 22 -22 39 -44 37 -50 -2 -6 -1 -8 3
-4 4 4 16 -2 28 -13 11 -10 32 -19 45 -19 18 0 23 -4 18 -16 -4 -10 -2 -13 6
-7 19 11 48 11 55 0 4 -6 1 -7 -7 -2 -9 5 -11 4 -6 -3 5 -9 13 -9 26 -2 13 7
21 7 25 0 3 -5 11 -10 16 -10 6 0 8 4 5 8 -6 10 24 9 41 -1 6 -4 15 -3 18 3 5
8 11 7 21 -1 11 -9 14 -8 14 2 0 11 2 11 10 -1 7 -11 10 -11 10 -2 0 7 5 10
10 7 6 -3 10 -2 10 4 0 5 9 8 20 6 13 -3 18 0 14 7 -5 7 -1 9 9 5 10 -3 17 -2
17 3 0 9 39 26 52 22 5 -1 7 4 5 11 -1 6 5 11 13 9 8 -2 12 -1 8 3 -10 10 24
45 36 38 6 -3 8 -3 4 1 -3 4 7 22 23 38 16 17 27 33 25 36 -3 2 1 11 9 19 8 8
15 26 15 39 0 15 4 23 10 19 6 -4 10 -3 9 2 -1 4 -1 23 0 41 1 23 5 31 13 26
6 -4 4 3 -5 16 -9 14 -13 30 -9 39 11 24 7 74 -7 79 -15 5 -14 29 2 35 7 3 4
6 -7 6 -15 1 -16 4 -6 16 11 13 10 14 -4 9 -9 -4 -16 -3 -15 2 4 23 -2 45 -11
39 -5 -3 -10 3 -10 14 0 12 -4 21 -10 21 -5 0 -10 7 -10 16 0 8 -4 13 -9 10
-5 -3 -11 5 -13 18 -4 17 -1 23 9 19 7 -3 13 2 13 11 0 9 4 16 10 16 5 0 9 3
9 8 -3 19 2 33 10 28 9 -6 26 22 23 36 -1 5 1 7 6 7 20 -3 31 2 26 15 -3 8 5
21 18 30 13 9 24 21 24 26 1 6 2 15 3 21 0 5 6 7 11 4 9 -6 14 8 11 28 -1 5 3
6 8 3 5 -3 16 6 25 20 13 18 22 23 38 18 15 -5 19 -3 13 7 -5 8 2 5 14 -6 12
-11 22 -15 21 -10 -5 21 1 29 10 15 8 -13 11 -12 25 5 9 11 13 14 9 6 -5 -9
-3 -12 4 -7 7 4 12 15 12 24 0 14 2 14 9 3 7 -11 10 -8 16 10 9 28 30 51 39
42 11 -11 46 -10 46 1 0 6 5 4 10 -4 6 -9 10 -11 10 -3 0 7 6 10 13 8 27 -11
97 -11 97 -1 0 6 5 4 10 -4 9 -13 10 -13 10 0 0 13 1 13 11 0 8 -11 12 -12 15
-3 9 20 44 -8 44 -35 0 -16 4 -21 13 -16 8 5 8 2 -2 -9 -7 -9 -9 -17 -4 -17 5
0 10 -7 11 -15 1 -8 3 -22 4 -30 1 -8 5 -12 9 -10 4 3 10 -6 13 -20 4 -14 11
-25 17 -25 6 0 7 -4 4 -10 -6 -10 9 -15 30 -10 5 1 7 -1 3 -5 -9 -10 24 -45
35 -38 6 3 7 1 3 -5 -4 -7 -2 -12 4 -12 6 0 9 -4 6 -9 -4 -5 0 -12 6 -14 10
-4 10 -6 0 -6 -7 -1 -10 -5 -7 -11 3 -5 1 -10 -5 -10 -6 0 -8 -5 -5 -10 3 -6
1 -10 -5 -10 -6 0 -8 -5 -5 -10 3 -6 0 -13 -8 -16 -8 -3 -14 -13 -13 -22 3
-18 -15 -42 -26 -36 -3 2 -4 -5 -1 -16 3 -11 0 -20 -6 -20 -6 0 -11 -9 -11
-20 0 -10 -8 -24 -17 -29 -10 -6 -14 -11 -9 -11 5 0 3 -7 -4 -15 -6 -8 -9 -18
-6 -24 3 -5 -1 -11 -9 -15 -8 -3 -15 -15 -15 -26 0 -11 -5 -20 -11 -20 -6 0
-8 -7 -5 -16 3 -8 2 -12 -4 -9 -6 3 -10 3 -11 -2 -3 -29 -9 -48 -18 -51 -6 -2
-11 -10 -11 -18 0 -9 -5 -12 -12 -8 -10 5 -10 4 -1 -6 10 -11 9 -17 -5 -29
-10 -9 -17 -23 -17 -31 0 -18 -17 -40 -27 -33 -4 2 -5 -3 -2 -11 4 -10 1 -16
-7 -16 -7 0 -9 -3 -6 -7 4 -3 1 -13 -6 -21 -10 -13 -9 -14 3 -7 13 8 13 6 1
-8 -7 -9 -17 -14 -22 -11 -5 3 -6 -2 -3 -10 3 -9 -1 -23 -10 -32 -9 -8 -14
-20 -11 -24 3 -5 -9 -7 -27 -5 -18 2 -39 -1 -47 -8 -12 -10 -13 -9 -7 1 6 10
3 13 -10 11 -11 -2 -25 0 -33 5 -9 6 -12 5 -8 -1 4 -6 0 -14 -9 -17 -8 -3 -13
-2 -10 2 3 5 -1 9 -9 9 -8 0 -12 -4 -9 -9 3 -4 2 -8 -3 -9 -30 -3 -48 -9 -51
-19 -2 -5 -8 -8 -13 -4 -5 3 -9 0 -9 -6 0 -6 -4 -8 -10 -5 -5 3 -10 1 -10 -5
0 -15 -26 -41 -34 -33 -3 4 -6 -1 -6 -11 0 -10 -5 -14 -12 -10 -8 5 -9 0 -6
-14 4 -14 2 -20 -5 -15 -6 4 -8 0 -4 -10 4 -10 2 -16 -5 -14 -13 3 -20 -26
-20 -85 0 -33 -4 -46 -12 -41 -6 4 -5 -1 3 -10 7 -9 10 -17 6 -17 -4 0 -1 -8
6 -17 12 -14 12 -16 0 -8 -11 6 -12 2 -7 -21 4 -16 12 -32 18 -35 5 -3 10 -10
10 -15 0 -5 5 -8 10 -6 6 2 8 -4 5 -12 -4 -10 6 -29 25 -48 18 -18 25 -24 17
-13 -13 18 -13 19 4 6 9 -7 17 -19 17 -25 0 -7 10 -12 21 -13 12 -1 31 -10 42
-20 11 -10 17 -12 12 -4 -5 9 0 8 17 -3 14 -9 28 -13 31 -9 4 3 7 2 7 -4 0
-11 29 -11 49 1 8 5 16 4 21 -4 7 -11 12 -10 25 3 19 20 39 23 30 5 -4 -7 3
-2 14 11 13 14 21 18 21 10 1 -9 4 -8 11 4 6 9 14 15 20 12 5 -4 9 -1 9 6 0 7
3 10 6 6 17 -16 111 114 97 135 -3 6 -2 8 4 5 6 -4 10 8 9 31 -1 25 3 36 11
35 7 -2 12 2 10 8 -1 6 6 13 16 14 9 2 17 0 17 -4 0 -4 7 -8 15 -8 8 0 12 4 9
9 -3 4 4 8 15 8 12 0 21 5 21 11 0 8 5 8 15 -1 12 -10 18 -10 29 -1 11 9 16 9
21 0 6 -8 10 -7 16 2 7 12 9 11 9 -1 0 -9 5 -7 16 8 13 18 19 21 30 11 8 -6
17 -9 20 -6 3 3 19 1 35 -3 18 -5 27 -5 24 1 -4 5 -4 9 -1 9 3 0 10 -10 17
-21 9 -17 8 -20 -2 -13 -7 4 -2 -8 11 -26 13 -18 19 -30 12 -26 -8 5 -10 2 -6
-8 3 -9 10 -16 16 -16 5 0 6 -4 3 -10 -3 -6 -1 -10 4 -10 6 0 11 -7 11 -16 0
-10 5 -14 16 -10 8 3 12 2 9 -4 -3 -6 -1 -10 4 -10 6 0 11 -7 11 -16 0 -8 3
-13 8 -11 9 6 33 -19 25 -27 -4 -3 1 -6 10 -6 9 0 17 -4 17 -10 0 -5 7 -10 15
-10 9 0 25 -9 37 -20 12 -11 32 -20 45 -20 14 0 22 -4 18 -9 -3 -6 3 -9 12 -9
25 1 47 -5 54 -16 4 -4 16 -3 28 3 14 8 21 8 21 1 0 -12 22 -9 33 5 4 6 11 4
17 -5 9 -13 10 -13 10 0 0 13 2 13 9 1 8 -12 12 -12 24 -2 12 9 16 9 20 -1 3
-10 8 -9 23 3 31 26 48 34 39 18 -5 -8 1 -5 13 5 12 11 22 15 22 10 0 -5 10 2
21 16 11 14 18 19 14 12 -6 -11 -3 -12 14 -3 11 6 26 21 32 33 8 15 13 17 19
8 5 -9 9 -9 14 -1 4 6 4 11 -1 12 -4 0 3 5 16 10 14 6 21 15 17 24 -3 9 3 19
15 25 11 6 17 15 14 21 -4 5 -2 9 4 9 6 0 8 7 5 15 -5 11 -2 13 12 8 12 -4 15
-3 10 5 -4 7 -2 12 5 12 7 0 9 3 6 7 -4 3 -1 13 6 21 10 13 9 14 -3 7 -12 -7
-13 -6 -3 7 7 8 10 18 6 21 -3 4 -2 7 3 7 5 0 10 10 11 22 1 11 8 25 15 29 7
5 8 9 2 9 -6 0 -11 7 -11 15 0 8 5 15 11 15 6 0 5 4 -2 9 -17 11 -17 21 0 32
10 7 10 9 1 9 -14 0 -13 26 1 49 6 9 5 12 -1 8 -11 -7 -40 69 -35 92 2 7 -1
10 -6 7 -6 -3 -13 1 -16 10 -3 8 -2 13 2 11 8 -6 33 19 26 26 -3 2 7 12 22 22
18 11 24 13 19 4 -4 -8 2 -5 12 7 19 22 51 39 68 35 6 -2 7 1 3 5 -4 4 2 15
13 25 17 15 24 16 40 6 10 -6 19 -16 19 -22 0 -5 5 -3 10 5 7 11 10 11 10 2 0
-7 4 -11 8 -8 4 2 14 1 22 -4 8 -5 22 -4 34 3 39 22 66 17 99 -16 17 -18 33
-31 34 -29 8 7 23 1 18 -8 -3 -5 1 -10 10 -10 9 0 13 -4 10 -10 -3 -5 3 -10
15 -10 12 0 24 -9 30 -22 5 -13 9 -20 9 -15 1 4 13 0 29 -10 38 -24 52 -40 45
-47 -4 -3 1 -6 9 -6 18 0 32 -27 18 -35 -6 -4 -10 -12 -10 -18 0 -7 4 -6 11 3
6 8 9 11 7 5 -3 -5 -10 -25 -17 -42 -7 -18 -17 -30 -22 -27 -5 3 -6 -3 -2 -12
4 -12 3 -15 -5 -10 -17 10 -15 0 4 -18 8 -9 11 -16 5 -16 -7 0 -9 -14 -5 -36
3 -21 2 -34 -4 -31 -5 4 -9 0 -9 -8 0 -8 4 -12 9 -9 9 6 6 -25 -5 -43 -4 -6
-2 -15 4 -18 5 -4 8 -13 5 -21 -3 -7 0 -16 5 -20 6 -3 9 -15 6 -25 -3 -11 -2
-17 1 -15 9 5 32 -20 25 -27 -3 -3 -1 -12 3 -19 19 -30 10 -54 -18 -49 -5 0
-8 -6 -8 -15 0 -8 -4 -12 -10 -9 -5 3 -10 1 -10 -5 0 -6 -4 -9 -9 -6 -5 3 -12
-1 -15 -10 -4 -9 -9 -14 -13 -11 -3 4 -12 2 -19 -4 -8 -7 -14 -7 -19 1 -3 5
-3 10 2 10 4 0 -3 7 -15 16 -13 9 -26 13 -29 10 -3 -3 -12 2 -19 12 -11 14
-13 14 -14 2 0 -13 -1 -13 -10 0 -11 18 -140 24 -140 6 0 -6 -5 -3 -11 7 -10
18 -12 18 -35 -4 -13 -12 -24 -18 -24 -12 0 5 -6 10 -14 10 -8 0 -12 -6 -9
-14 3 -8 -2 -13 -12 -13 -10 0 -39 -22 -65 -49 -27 -27 -51 -47 -55 -43 -4 4
-6 2 -5 -3 5 -25 -1 -46 -12 -39 -6 4 -9 3 -6 -2 3 -5 1 -20 -4 -34 -13 -31
-16 -90 -6 -90 4 0 8 -5 8 -11 0 -5 -4 -8 -9 -5 -9 6 -7 -37 4 -53 3 -6 2 -11
-4 -11 -5 0 -3 -14 6 -30 9 -18 19 -27 26 -23 7 4 5 -2 -3 -12 -12 -15 -12
-17 -1 -10 11 6 13 4 7 -11 -4 -10 -4 -15 0 -12 9 9 37 -20 30 -31 -3 -5 10
-16 29 -25 19 -9 35 -21 35 -27 0 -6 5 -7 10 -4 6 3 10 1 10 -4 0 -6 9 -11 19
-11 11 0 21 -5 23 -11 2 -5 19 -11 38 -11 19 -1 38 -6 42 -12 5 -8 8 -7 8 2 0
6 5 12 11 12 5 0 7 -4 4 -10 -3 -5 0 -10 7 -10 7 0 14 -13 15 -30 2 -22 -1
-29 -10 -23 -7 4 -7 0 2 -10 7 -9 10 -17 5 -17 -4 0 1 -7 12 -15 11 -8 14 -14
6 -15 -9 0 -10 -5 -2 -19 13 -25 13 -34 -1 -25 -8 5 -9 2 -1 -12 8 -15 5 -23
-17 -44 -35 -31 -73 -88 -51 -76 12 7 13 6 3 -5 -16 -16 -17 -109 -2 -109 5 0
7 -4 4 -10 -3 -5 -1 -10 4 -10 6 0 10 -3 9 -7 -5 -14 58 -70 75 -67 9 1 20 -3
24 -8 4 -7 1 -8 -8 -3 -12 7 -12 5 -1 -6 11 -12 14 -12 22 1 5 8 10 10 10 4 0
-7 9 -14 20 -17 10 -3 18 -2 17 2 -1 3 1 7 5 9 4 2 23 9 42 17 l34 14 62 -59
c35 -33 67 -60 72 -60 14 0 38 -27 31 -34 -4 -3 1 -6 10 -6 10 0 17 -6 18 -12
1 -18 7 -60 11 -78 1 -8 10 -21 18 -30 14 -14 14 -14 0 -5 -13 9 -13 8 -1 -7
7 -10 20 -18 28 -18 8 0 12 -4 9 -9 -4 -5 4 -7 16 -3 16 4 19 2 13 -8 -6 -10
-4 -12 7 -7 9 3 21 0 28 -6 10 -9 11 -9 5 1 -4 9 -2 12 6 11 16 -4 87 29 96
44 4 6 1 7 -8 2 -11 -7 -12 -6 -3 6 14 17 17 55 11 111 -2 21 -63 79 -73 69
-4 -3 -2 4 4 15 6 12 8 24 5 28 -11 10 -11 46 0 39 5 -3 6 4 1 18 -4 13 -7 29
-6 34 1 6 3 21 5 35 2 14 1 29 -2 35 -8 16 -8 44 1 39 4 -3 5 10 1 28 -3 18
-2 30 2 26 9 -8 35 14 28 24 -2 4 2 5 10 2 8 -3 21 6 31 20 9 15 14 26 11 26
-4 0 1 7 9 16 9 8 16 24 16 35 0 11 4 18 8 15 5 -3 9 1 9 9 0 8 -5 15 -10 15
-5 0 -7 9 -4 20 3 11 1 20 -3 20 -5 0 -7 9 -5 20 2 11 0 18 -6 15 -5 -4 -9 -1
-9 5 0 7 -13 25 -30 40 -44 41 -53 73 -29 104 11 14 15 27 10 30 -12 8 -10 46
2 46 4 0 5 5 2 10 -3 6 -2 10 2 10 5 0 7 23 6 51 -2 28 0 48 5 45 13 -8 14 55
1 70 -9 11 -7 15 6 20 12 5 13 9 4 14 -8 6 -1 13 21 25 23 12 30 13 24 3 -6
-10 -5 -11 7 -1 9 7 20 9 29 3 9 -5 19 -5 27 2 7 6 13 7 13 3 0 -4 7 -2 15 5
8 7 15 9 15 4 0 -5 5 -2 10 6 8 13 10 13 10 0 0 -10 5 -8 15 7 10 14 22 19 35
16 11 -3 20 0 20 6 0 6 11 16 25 21 14 5 25 14 25 20 0 6 5 8 11 5 6 -4 9 0 7
11 -2 14 2 18 16 16 11 -2 15 1 11 7 -3 6 1 11 9 11 9 0 16 5 16 10 0 6 12 22
28 36 15 14 21 23 15 19 -7 -3 -13 -2 -13 3 0 6 7 13 16 16 9 4 14 9 11 13 -4
3 1 12 11 19 10 8 12 13 5 14 -7 0 -10 7 -7 15 4 8 10 12 15 9 5 -3 6 2 3 10
-4 10 -1 16 7 16 11 0 11 2 1 8 -10 7 -10 14 2 38 9 17 12 32 7 37 -13 13 -2
38 13 30 6 -4 5 1 -3 10 -8 10 -11 20 -8 24 4 3 2 12 -4 19 -6 8 -9 21 -5 29
3 9 2 13 -4 10 -9 -5 -15 23 -11 48 0 4 -4 7 -9 7 -5 0 -9 3 -9 7 4 22 -2 33
-13 27 -9 -5 -9 -3 1 9 11 14 11 18 -3 23 -9 3 -13 10 -10 15 3 5 0 9 -6 9 -6
0 -8 4 -5 10 3 6 -1 7 -9 4 -10 -4 -16 -1 -16 8 0 17 -64 78 -80 78 -6 0 -8 5
-5 10 6 10 -3 13 -37 13 -10 0 -18 6 -18 14 0 8 -4 11 -10 8 -5 -3 -10 -1 -10
5 0 6 -4 8 -10 5 -5 -3 -10 -1 -10 5 0 6 -4 9 -9 6 -5 -4 -8 1 -7 10 1 8 8 19
15 24 10 5 10 9 1 15 -8 5 -6 11 7 22 10 8 13 12 7 9 -7 -3 -14 1 -18 9 -3 8
0 15 5 15 6 0 9 9 6 20 -3 12 1 24 11 30 11 6 13 9 4 10 -10 0 -10 4 2 16 19
19 20 31 4 37 -9 3 -7 11 7 27 11 13 14 20 8 16 -7 -4 -13 -2 -13 3 0 6 5 11
11 11 5 0 7 5 4 10 -3 6 -1 10 6 10 9 0 10 3 2 11 -13 13 -5 51 10 42 6 -4 8
0 4 10 -3 9 -2 19 4 23 6 4 7 10 0 17 -6 8 -5 19 5 31 7 10 11 23 7 29 -3 5 1
13 8 18 10 6 10 9 2 9 -7 0 -10 7 -7 15 4 8 13 15 22 15 13 0 12 3 -4 15 -13
10 -14 14 -5 15 11 0 11 3 1 15 -9 11 -9 15 -1 15 7 0 9 5 6 10 -3 6 -2 10 3
10 5 0 8 10 8 23 -1 12 2 31 8 42 15 28 16 55 2 55 -8 0 -8 2 0 8 6 4 13 15
17 25 4 10 12 15 17 12 6 -4 9 -1 8 7 -2 7 3 12 10 11 6 -2 12 2 12 8 0 5 5 7
10 4 6 -3 10 -1 10 5 0 6 4 9 9 5 10 -6 37 34 33 48 -1 4 6 7 16 7 13 0 14 2
3 9 -9 6 -10 11 -2 15 6 4 9 11 7 15 -12 19 -14 66 -3 80 9 12 9 13 0 7 -7 -4
-13 -2 -13 3 0 6 -6 11 -14 11 -8 0 -18 9 -21 20 -4 11 -11 18 -16 15 -5 -4
-9 1 -9 10 0 11 -5 15 -14 12 -8 -3 -20 0 -26 8 -12 15 -53 8 -43 -8 4 -6 0
-8 -10 -4 -10 4 -17 1 -17 -6 0 -8 -3 -8 -9 2 -9 13 -39 5 -40 -11 -1 -5 -3
-7 -6 -5 -7 3 -34 -37 -29 -44 2 -4 -3 -9 -11 -13 -9 -3 -12 -12 -8 -22 4 -12
3 -15 -5 -10 -7 4 -12 2 -12 -5 0 -7 -3 -9 -7 -6 -3 4 -12 2 -19 -4 -8 -6 -21
-9 -29 -5 -8 3 -15 0 -15 -7 0 -9 -3 -8 -9 1 -6 11 -10 10 -15 -3 -5 -15 -9
-15 -23 -4 -10 9 -14 9 -10 2 5 -8 -1 -11 -20 -10 -16 2 -34 -4 -41 -13 -11
-12 -12 -13 -6 0 6 12 5 13 -7 3 -12 -10 -18 -10 -29 0 -10 10 -11 9 -5 -2 6
-11 3 -13 -13 -9 -12 3 -21 3 -20 -1 2 -18 -4 -22 -17 -11 -12 10 -15 10 -15
-1 0 -11 -2 -11 -10 1 -7 11 -10 11 -10 2 0 -7 -4 -10 -10 -7 -5 3 -10 1 -10
-6 0 -8 -4 -8 -15 1 -12 10 -16 9 -21 -5 -6 -13 -9 -14 -16 -3 -8 10 -11 10
-15 0 -2 -6 -9 -10 -14 -6 -5 3 -9 1 -9 -3 0 -5 -16 -8 -35 -7 -19 1 -35 -2
-35 -7 0 -5 -6 -9 -14 -9 -17 0 -48 39 -40 52 3 4 -1 8 -9 8 -7 0 -19 11 -25
25 -9 20 -9 23 3 18 9 -3 15 1 15 10 0 8 6 20 14 27 8 6 13 17 10 24 -3 8 2
16 11 20 9 3 13 10 10 16 -3 5 -1 10 5 10 6 0 8 5 5 10 -3 6 -1 10 5 10 6 0 8
5 4 12 -5 8 -2 9 10 5 13 -5 17 -3 13 7 -3 7 0 19 6 26 9 10 9 11 -3 6 -8 -4
-4 2 10 14 14 12 18 18 10 14 -12 -6 -13 -5 -3 8 7 8 9 18 5 22 -4 4 -1 6 7 4
7 -2 15 6 17 16 1 11 10 23 19 28 8 5 13 13 10 19 -4 5 -3 14 1 20 5 8 9 8 14
-1 5 -8 11 -7 22 4 9 8 18 12 22 9 3 -3 12 0 21 7 12 10 15 10 15 -1 0 -11 2
-11 10 1 5 8 10 12 10 8 0 -8 18 9 54 51 20 22 20 22 0 16 -17 -6 -17 -5 -3 7
9 7 15 20 14 28 -1 8 7 24 18 35 l20 20 -6 -20 c-7 -18 -6 -19 6 -3 8 10 25
19 38 20 13 2 30 10 37 18 12 13 13 13 7 0 -4 -8 1 -6 9 4 9 11 16 16 16 12 0
-5 8 -2 17 5 11 9 14 10 9 2 -5 -9 -2 -11 8 -7 9 3 13 10 10 15 -3 6 5 7 20 3
17 -4 26 -2 26 6 0 6 5 8 10 5 6 -3 10 -2 10 4 0 6 7 8 15 5 8 -4 15 -1 15 5
0 6 7 8 17 4 11 -4 14 -3 9 5 -5 8 0 12 13 12 12 0 23 -1 25 -2 2 -2 13 6 25
16 19 17 21 18 21 2 0 -9 5 -14 10 -11 6 3 10 -4 10 -16 0 -12 3 -19 7 -16 3
4 12 -2 20 -13 8 -11 20 -20 27 -20 7 0 26 -12 41 -27 16 -16 25 -22 21 -15
-4 7 -1 12 9 12 10 0 13 -5 9 -12 -5 -8 -2 -9 9 -5 10 3 17 3 17 -1 0 -4 25
-7 55 -7 30 0 55 3 55 7 0 4 7 5 15 2 8 -4 15 -1 15 5 0 7 6 11 13 10 26 -3
38 1 31 13 -4 7 -3 8 5 4 7 -5 24 6 43 26 17 18 35 32 39 31 4 -2 11 6 14 17
4 11 10 20 15 20 5 0 7 6 4 14 -3 8 -1 17 5 20 6 4 7 14 4 23 -5 12 -3 14 7 8
10 -6 12 -4 7 8 -3 9 -1 19 5 23 7 4 6 9 -3 15 -11 7 -11 9 1 9 13 0 13 1 0
10 -8 5 -10 10 -4 10 11 0 12 35 1 46 -12 12 -8 26 6 19 6 -4 2 2 -11 13 -15
14 -18 22 -10 25 10 4 10 6 1 6 -7 1 -13 6 -13 11 0 6 -9 20 -20 32 -11 12
-20 29 -20 39 0 9 -7 20 -16 23 -9 4 -13 2 -8 -5 4 -8 0 -8 -14 0 -12 6 -24
17 -28 24 -5 7 -1 7 12 -3 17 -12 17 -12 6 0 -7 8 -17 16 -22 16 -6 1 -14 2
-20 3 -5 0 -10 8 -10 17 0 9 -5 12 -12 8 -7 -4 -10 -4 -6 1 4 4 3 17 -3 28 -8
14 -8 18 0 13 6 -4 12 -2 12 3 2 11 5 26 9 39 1 4 2 15 1 25 -1 9 4 17 11 18
7 0 4 4 -7 9 -11 5 -15 9 -8 9 7 1 10 8 6 18 -5 12 -3 14 8 8 12 -7 12 -6 1 7
-10 12 -11 22 -3 36 6 11 7 22 4 26 -3 3 -1 6 6 6 9 0 9 5 1 20 -9 16 -8 20 7
21 11 0 13 3 6 6 -7 2 -13 9 -13 14 0 6 4 8 9 4 5 -3 12 -1 16 5 4 6 11 8 16
5 5 -4 17 -1 26 4 10 6 14 11 10 11 -4 0 4 11 19 25 15 14 23 25 19 25 -5 0 0
7 11 16 10 8 12 12 4 8 -12 -6 -13 -5 -4 7 6 8 10 24 8 36 -2 13 -1 22 4 21
14 -3 42 14 36 23 -3 5 3 6 12 2 13 -5 15 -3 9 8 -7 11 -6 12 6 2 11 -9 18 -8
33 3 10 7 23 11 27 8 5 -3 9 2 9 10 0 10 6 13 17 9 11 -4 14 -3 9 5 -5 8 -2
10 8 6 9 -3 16 -2 16 4 0 6 9 8 20 5 12 -3 20 0 20 6 0 7 5 9 10 6 6 -3 10 -2
10 3 0 6 7 13 16 16 9 3 12 2 8 -5 -3 -6 7 -4 23 4 26 14 30 13 51 -3 12 -10
22 -23 22 -28 0 -6 10 -14 21 -17 17 -6 19 -9 8 -16 -10 -6 -8 -9 9 -9 13 0
21 -4 18 -8 -2 -4 5 -9 16 -9 12 -1 25 -8 29 -15 7 -10 9 -10 9 2 0 10 3 11 8
4 11 -17 35 -22 56 -12 12 7 16 7 12 0 -3 -6 -2 -13 4 -17 5 -3 10 -2 10 4 0
10 18 10 37 -2 6 -4 15 -3 18 3 5 8 11 8 20 0 9 -7 15 -8 19 -1 4 6 14 7 23 4
11 -4 14 -3 9 6 -11 17 40 6 60 -13 8 -9 12 -16 8 -16 -3 0 -1 -6 5 -13 6 -8
8 -17 4 -21 -4 -4 1 -4 10 0 10 3 17 3 15 -2 -4 -17 14 -54 27 -54 8 0 11 -7
8 -20 -4 -14 0 -20 11 -20 9 0 16 -7 16 -15 0 -9 7 -18 15 -21 8 -4 15 -11 15
-18 0 -6 9 -18 19 -25 11 -8 17 -20 14 -28 -3 -7 -1 -13 5 -13 14 0 10 -33 -5
-43 -7 -4 -9 -15 -6 -24 4 -9 2 -14 -3 -11 -13 8 -31 -14 -28 -35 1 -9 -3 -15
-8 -14 -9 2 -14 -12 -20 -60 -1 -7 -6 -13 -12 -13 -6 0 -2 -7 8 -15 20 -15 20
-15 0 -15 -16 0 -17 -2 -4 -10 11 -7 11 -10 2 -10 -10 0 -10 -5 -2 -20 8 -14
8 -20 0 -20 -7 0 -8 -6 -2 -16 5 -9 7 -25 5 -35 -3 -11 -1 -19 5 -19 5 0 12
-15 15 -32 5 -37 -15 -68 -45 -68 -11 0 -16 -4 -13 -10 3 -5 -1 -10 -9 -10 -9
0 -16 -4 -16 -10 0 -5 -4 -10 -10 -10 -15 0 -49 -37 -42 -46 4 -4 2 -4 -5 0
-7 4 -21 -1 -31 -11 -35 -33 -62 -53 -73 -53 -5 0 -7 -4 -4 -10 3 -5 0 -10 -8
-10 -16 0 -59 -35 -52 -42 3 -2 -3 -5 -12 -5 -10 0 -21 5 -25 11 -5 7 -8 6 -8
-4 0 -9 -3 -11 -8 -5 -10 15 -80 37 -92 30 -5 -3 -10 0 -10 7 0 10 -2 10 -8 1
-5 -7 -13 -9 -21 -3 -9 5 -19 3 -28 -6 -8 -8 -23 -14 -34 -14 -11 0 -22 -7
-25 -15 -4 -8 -10 -13 -14 -10 -4 3 -10 -5 -13 -16 -3 -12 -10 -18 -16 -15 -5
4 -12 -3 -16 -14 -3 -11 -10 -20 -14 -20 -5 0 -7 -13 -6 -30 1 -16 -1 -28 -5
-25 -4 3 -10 -2 -14 -10 -3 -8 -1 -17 3 -19 5 -3 7 -17 5 -32 -3 -28 24 -94
38 -94 4 0 8 -9 8 -19 0 -11 5 -23 10 -26 6 -3 10 -17 10 -31 0 -14 -4 -22
-10 -19 -6 4 -10 -5 -10 -20 0 -14 -6 -28 -14 -31 -8 -3 -13 -13 -12 -22 2 -9
-7 -25 -18 -35 -12 -10 -14 -15 -6 -11 12 6 13 4 3 -7 -7 -7 -13 -21 -13 -30
0 -9 -7 -22 -16 -30 -8 -7 -13 -21 -11 -31 3 -10 0 -21 -5 -25 -7 -4 -8 -1 -3
7 6 9 4 11 -4 6 -7 -5 -10 -14 -7 -22 3 -8 1 -14 -5 -14 -6 0 -8 -7 -5 -15 3
-9 -1 -18 -9 -21 -8 -3 -11 -12 -8 -21 4 -11 2 -14 -5 -9 -8 5 -10 2 -6 -8 3
-9 1 -16 -6 -16 -6 0 -9 -4 -6 -9 8 -12 -12 -18 -57 -17 -20 0 -39 -3 -41 -9
-3 -5 -5 -4 -5 4 -1 10 -4 11 -15 2 -10 -8 -16 -9 -21 -1 -3 5 -11 10 -16 10
-6 0 -8 -4 -5 -9 4 -5 -2 -7 -12 -4 -10 2 -24 -3 -31 -11 -8 -9 -22 -16 -32
-16 -11 0 -19 -4 -19 -10 0 -5 -7 -10 -17 -10 -9 0 -14 -3 -10 -6 7 -7 -29
-44 -43 -44 -5 0 -10 -7 -10 -15 0 -9 -7 -18 -15 -21 -8 -4 -12 -10 -9 -15 3
-5 0 -9 -7 -9 -7 0 -9 -3 -6 -7 4 -3 -1 -15 -10 -25 -16 -18 -16 -19 3 -13 18
6 18 6 0 -9 -10 -8 -15 -19 -11 -25 3 -6 0 -11 -7 -11 -10 0 -9 -3 1 -9 12 -8
12 -12 2 -24 -9 -12 -9 -16 1 -19 10 -4 10 -8 2 -19 -13 -16 7 -64 22 -51 4 4
2 -1 -5 -10 -9 -12 -10 -18 -2 -18 6 0 11 -9 11 -20 0 -11 5 -20 11 -20 6 0 8
-7 5 -16 -3 -8 -2 -12 4 -9 5 3 12 -6 16 -20 3 -14 9 -24 12 -21 3 3 13 -4 23
-15 9 -11 20 -20 23 -20 20 3 26 0 21 -9 -3 -5 3 -10 15 -10 14 0 19 -4 14
-12 -4 -7 -4 -10 1 -6 4 4 22 0 39 -9 30 -16 30 -15 16 2 -13 17 -13 18 0 10
8 -4 24 -15 34 -24 11 -9 16 -10 12 -3 -4 6 -2 12 3 12 6 0 11 -5 11 -12 0 -8
3 -9 10 -2 16 16 69 4 75 -17 4 -11 11 -17 16 -14 5 3 6 -2 2 -11 -4 -11 -3
-15 5 -10 7 4 9 -2 6 -19 -2 -14 0 -25 6 -25 6 0 9 -4 6 -9 -4 -5 -1 -11 5
-13 6 -2 12 -16 12 -31 0 -17 7 -32 18 -38 11 -5 19 -14 19 -19 0 -15 -31 -40
-42 -34 -6 4 -8 3 -5 -3 3 -5 -7 -17 -24 -27 -16 -9 -27 -22 -24 -27 4 -5 -1
-9 -9 -9 -9 0 -15 -6 -13 -12 1 -7 -4 -12 -10 -11 -7 2 -12 0 -12 -5 4 -21 -2
-32 -13 -26 -8 5 -9 2 -5 -9 3 -10 2 -17 -2 -17 -5 0 -12 -7 -15 -16 -3 -8 -2
-12 4 -9 5 3 3 -7 -5 -21 -8 -15 -12 -31 -9 -36 3 -4 0 -8 -6 -8 -6 0 -8 -4
-5 -10 3 -5 -2 -10 -11 -10 -16 0 -16 -1 2 -15 14 -11 15 -14 4 -15 -13 0 -13
-1 0 -10 11 -7 11 -10 2 -10 -9 0 -10 -5 -3 -19 8 -15 7 -20 -6 -25 -14 -6
-14 -8 1 -25 12 -13 14 -20 5 -23 -8 -3 -6 -9 6 -21 9 -10 15 -21 12 -24 -4
-3 0 -18 9 -34 8 -16 13 -30 12 -32 -2 -1 11 -16 27 -32 17 -17 41 -43 53 -60
13 -16 20 -23 17 -15 -4 8 4 3 17 -12 14 -16 30 -28 37 -28 6 0 11 -6 11 -12
0 -9 4 -8 10 2 8 13 10 13 10 -1 0 -11 8 -16 23 -15 12 0 21 -4 20 -10 -1 -8
6 -10 19 -6 15 4 19 2 13 -7 -6 -10 -3 -11 13 -2 14 8 23 8 27 1 5 -7 11 -8
19 -1 7 6 17 6 26 1 8 -5 22 -4 33 2 15 7 22 7 28 -3 8 -13 13 -5 10 15 -1 5
6 3 15 -5 15 -11 16 -11 10 0 -6 9 -5 12 5 9 8 -3 27 4 43 15 16 12 27 16 23
11 -3 -6 0 -11 8 -11 8 0 13 2 10 5 -10 10 48 48 67 44 4 -1 4 6 1 15 -4 11
-3 14 6 9 8 -5 14 -1 18 13 3 11 9 19 13 16 5 -3 11 -1 15 5 3 5 1 10 -4 10
-6 0 -3 8 7 18 9 11 20 17 24 15 4 -2 5 3 2 11 -3 9 -2 16 4 16 5 0 13 7 16
16 4 10 2 13 -7 9 -6 -4 -4 0 6 8 11 9 15 21 10 32 -4 13 -3 16 6 10 10 -6 11
-3 1 15 -7 12 -8 20 -3 17 4 -3 14 1 21 9 12 14 8 18 -13 14 -5 -1 -5 4 2 11
6 6 9 18 6 27 -5 11 -3 13 8 7 12 -7 12 -6 1 7 -9 12 -10 18 -2 23 8 5 7 12
-4 24 -9 10 -13 21 -9 24 3 4 1 7 -5 7 -6 0 -9 9 -7 20 2 11 -1 23 -7 26 -7 5
-8 2 -3 -6 6 -9 4 -11 -4 -5 -9 5 -9 11 -3 17 9 9 -14 61 -43 95 -5 7 -17 20
-25 30 -25 29 -19 49 27 98 7 7 9 15 6 19 -4 3 -1 6 5 6 6 0 14 9 17 20 4 11
10 18 15 15 4 -3 6 5 2 17 -3 14 -1 19 6 14 14 -8 46 39 37 54 -3 5 1 10 9 10
9 0 15 3 14 8 -5 12 28 52 36 44 4 -4 6 -2 5 3 -4 15 11 55 22 55 5 0 9 4 9
10 0 15 70 110 81 110 5 0 9 9 9 20 0 21 15 27 25 9 4 -6 13 -8 21 -5 9 3 14
-1 14 -12 0 -13 2 -14 9 -4 7 11 9 11 14 -1 3 -7 16 -13 29 -12 12 1 26 -3 30
-8 4 -7 12 -6 22 2 11 9 16 10 16 2 0 -12 40 -9 61 5 8 5 9 3 5 -5 -10 -15 25
-11 37 4 4 6 10 5 16 -4 8 -13 12 -13 27 0 16 12 17 12 9 -1 -7 -12 -6 -13 7
-3 8 7 18 10 21 6 4 -3 7 -1 7 6 0 7 5 9 10 6 6 -4 17 -1 25 5 8 7 15 9 15 4
0 -5 5 -1 11 9 6 9 14 15 20 12 5 -4 9 -1 9 4 0 6 6 10 13 8 6 -1 11 3 10 10
-2 7 3 10 10 7 7 -2 26 11 41 31 16 19 35 35 43 35 8 0 12 3 10 8 -5 9 39 52
47 46 3 -2 4 -1 1 3 -3 3 2 17 10 30 12 17 12 23 3 23 -10 0 -10 3 1 9 7 5 10
14 7 20 -4 6 0 14 8 17 9 3 16 12 16 20 0 8 6 14 13 14 8 0 8 3 2 8 -15 10
-13 54 3 71 11 12 11 15 0 22 -10 7 -10 9 0 9 6 0 12 7 12 16 0 9 -5 12 -12 8
-10 -5 -10 -4 -2 5 13 14 7 51 -8 51 -6 0 -6 6 1 14 9 11 9 15 -1 18 -10 4
-10 9 2 23 9 11 10 16 3 11 -8 -4 -13 -1 -13 8 0 9 -5 16 -11 16 -8 0 -8 5 1
15 10 12 10 15 0 15 -7 0 -10 7 -6 16 3 8 2 13 -3 10 -5 -3 -15 2 -22 11 -10
12 -10 14 -1 9 18 -11 15 -2 -13 30 -14 16 -25 33 -25 37 0 15 -71 78 -81 71
-6 -3 -13 3 -16 15 -3 11 -9 19 -13 16 -4 -3 -10 2 -14 10 -3 8 -12 12 -21 9
-8 -3 -15 -1 -15 6 0 6 -4 8 -10 5 -6 -3 -10 -1 -10 6 0 7 -3 9 -7 6 -3 -4
-13 -1 -21 6 -13 10 -14 9 -7 -2 5 -8 -7 -4 -25 9 -18 13 -30 17 -25 9 7 -11
6 -12 -6 -2 -15 12 -18 13 -55 13 -17 0 -23 4 -19 13 4 6 -1 3 -9 -7 -12 -15
-16 -16 -16 -5 0 8 -3 10 -8 4 -4 -6 -26 -10 -49 -10 -31 0 -39 -3 -31 -12 7
-9 2 -10 -19 -4 -20 6 -32 3 -41 -8 -11 -13 -12 -13 -6 -1 7 13 5 13 -9 1 -9
-7 -17 -10 -17 -5 0 4 -7 -1 -16 -12 -8 -10 -12 -13 -9 -6 6 11 3 11 -16 0
-13 -7 -28 -19 -32 -26 -5 -7 -12 -10 -16 -8 -4 3 -16 -9 -26 -25 -11 -16 -26
-27 -33 -24 -7 3 -10 0 -7 -5 3 -6 1 -10 -6 -10 -7 0 -10 -3 -7 -6 8 -7 -40
-54 -55 -54 -7 0 -6 -4 3 -10 13 -9 13 -10 0 -10 -13 0 -13 -1 0 -10 13 -8 12
-10 -3 -10 -10 0 -15 -4 -12 -10 3 -5 1 -10 -4 -10 -6 0 -11 -5 -11 -11 0 -5
5 -7 12 -3 7 4 8 3 4 -4 -4 -7 -15 -12 -24 -12 -13 0 -14 -2 -4 -8 10 -7 8
-14 -7 -34 -15 -18 -17 -28 -9 -36 8 -8 8 -15 -1 -26 -9 -11 -9 -16 0 -21 8
-6 7 -10 -2 -16 -10 -6 -10 -9 -2 -9 9 0 10 -7 4 -23 -5 -13 -5 -30 -1 -38 6
-8 4 -16 -3 -21 -9 -6 -8 -8 2 -8 11 0 11 -3 1 -15 -10 -12 -9 -16 4 -21 10
-4 15 -12 12 -20 -3 -7 2 -18 9 -24 8 -7 13 -16 10 -20 -7 -11 16 -60 28 -60
5 0 7 -6 4 -14 -5 -14 25 -46 44 -46 5 0 8 -4 4 -10 -3 -5 3 -18 14 -29 11
-11 18 -25 17 -33 -6 -33 -18 -58 -27 -53 -5 4 -9 -3 -9 -13 0 -11 -7 -22 -15
-26 -8 -3 -14 -10 -13 -15 2 -5 -6 -17 -17 -26 -11 -9 -13 -14 -5 -10 8 4 6
-1 -4 -9 -11 -9 -16 -16 -11 -16 5 0 0 -7 -11 -16 -10 -8 -13 -13 -6 -9 25 13
11 -5 -15 -19 -16 -8 -23 -15 -16 -16 7 0 10 -7 7 -15 -4 -8 -10 -13 -14 -10
-5 3 -12 -5 -16 -17 -4 -13 -15 -30 -24 -38 -9 -8 -15 -21 -12 -29 2 -8 1 -11
-4 -8 -13 7 -31 -16 -28 -36 1 -9 -3 -15 -9 -14 -6 1 -12 -5 -12 -13 0 -8 -6
-14 -13 -13 -7 2 -12 -4 -12 -12 0 -7 -7 -18 -16 -23 -9 -5 -17 -13 -17 -18
-3 -14 -30 -14 -47 0 -8 8 -23 12 -32 11 -10 -2 -18 0 -18 5 0 4 -7 11 -16 14
-8 3 -12 2 -9 -4 3 -6 1 -10 -4 -10 -6 0 -11 5 -11 11 0 8 -4 8 -13 0 -10 -8
-17 -7 -27 2 -10 9 -11 9 -6 0 11 -19 -5 -16 -20 5 -11 13 -13 13 -9 1 10 -27
-57 -11 -80 19 -12 17 -14 23 -4 17 8 -5 6 -2 -4 8 -11 9 -14 17 -7 17 7 0 6
5 -3 15 -9 8 -14 26 -13 39 2 14 -3 27 -11 30 -8 3 -11 10 -8 16 3 5 2 10 -3
10 -5 0 -12 9 -15 20 -3 11 -1 20 4 20 5 0 9 7 9 16 0 8 5 12 10 9 6 -3 10 -1
10 5 0 6 5 8 10 5 6 -4 10 -3 9 2 -3 20 2 33 14 30 6 -1 11 4 9 11 -1 7 5 15
13 18 8 4 15 12 15 20 0 8 5 14 11 14 6 0 9 9 6 20 -3 11 -1 20 4 20 5 0 8 3
8 8 -1 4 -1 9 1 12 9 25 8 50 -2 44 -7 -5 -8 -3 -2 7 5 8 9 21 9 29 0 8 4 21
8 27 6 9 3 11 -9 6 -14 -5 -15 -3 -5 15 12 23 4 55 -11 46 -6 -4 -8 2 -3 15 4
13 2 21 -5 21 -6 0 -9 4 -6 9 3 5 -1 11 -9 15 -8 3 -15 15 -15 26 0 12 -4 18
-10 15 -5 -3 -10 1 -10 10 0 9 -3 14 -7 12 -5 -3 -18 11 -31 31 -17 25 -18 31
-6 21 16 -13 16 -12 6 8 -10 19 -9 24 8 33 10 6 17 16 14 24 -3 7 1 20 8 27 7
8 13 24 12 36 -1 12 2 20 6 18 4 -3 11 2 14 11 4 10 2 13 -7 9 -6 -4 -4 0 6 8
10 8 16 21 15 28 -2 8 2 13 9 12 7 -2 10 6 8 17 -2 11 4 24 13 29 9 5 14 13
10 17 -4 4 0 13 10 21 14 12 14 15 3 20 -11 4 -8 10 10 25 13 11 17 17 9 13
-12 -5 -12 -4 1 7 9 7 14 18 12 25 -6 17 35 36 68 31 16 -3 29 -1 29 4 0 5 4
7 9 3 5 -3 13 0 16 6 4 5 13 8 21 5 8 -3 13 0 11 6 -1 7 4 13 11 14 6 1 17 2
23 3 5 0 8 4 6 9 -5 9 30 42 37 35 3 -4 4 8 2 25 -2 17 1 30 7 29 5 -1 12 4
15 12 3 9 0 11 -8 6 -9 -5 -11 -4 -6 4 13 20 17 61 6 61 -5 0 -10 5 -10 11 0
5 4 8 9 5 4 -3 7 8 5 24 -2 17 1 30 6 30 6 0 10 7 10 16 0 8 5 12 10 9 6 -3
10 -1 10 5 0 6 5 8 10 5 6 -3 10 -1 10 5 0 6 4 9 9 5 5 -3 12 4 16 15 4 11 10
18 15 15 5 -3 13 3 19 12 6 10 11 14 11 8 0 -5 7 1 15 15 8 14 14 19 15 12 0
-7 13 1 29 19 16 17 34 28 40 24 7 -4 10 -1 9 7 -2 7 4 12 14 10 13 -2 16 2
11 14 -4 12 -3 15 5 10 7 -4 15 -1 18 7 3 9 17 18 30 21 14 4 23 10 20 15 -3
4 1 8 9 8 8 0 12 -4 9 -9 -6 -10 37 -28 50 -20 5 3 6 0 2 -6 -4 -7 -2 -12 4
-12 6 0 8 -5 5 -10 -4 -6 -3 -10 2 -9 29 5 63 -2 57 -13 -4 -6 -3 -8 4 -4 6 3
14 2 17 -4 4 -7 12 -7 18 -2 7 4 19 8 27 7 8 0 18 4 22 10 5 6 8 2 8 -8 0 -10
5 -15 10 -12 6 4 7 11 4 17 -5 7 -2 8 7 2 19 -12 32 -12 48 0 11 8 13 8 7 -1
-4 -8 -2 -13 7 -13 8 0 18 7 21 16 4 11 13 14 27 11 12 -3 22 0 26 9 3 8 9 12
13 9 4 -3 10 2 14 10 3 8 12 15 20 15 8 0 18 5 22 12 5 7 3 8 -7 3 -8 -5 2 7
21 25 19 19 38 33 42 32 4 -1 5 5 2 13 -4 8 -1 15 6 15 7 0 10 8 7 20 -3 11 0
23 6 28 15 9 17 82 3 82 -6 0 -5 4 3 9 13 8 13 12 0 27 -8 10 -9 15 -3 11 8
-5 12 6 11 32 -1 22 -5 38 -9 35 -4 -3 -8 6 -8 20 0 14 0 29 -1 34 0 4 -9 10
-19 14 -12 5 -17 13 -14 23 4 8 -1 17 -10 21 -9 3 -16 14 -16 23 0 13 -2 13
-9 2 -7 -11 -10 -9 -16 8 -3 11 -13 21 -21 21 -8 0 -14 5 -14 12 0 6 -3 8 -7
5 -3 -4 -12 1 -20 11 -8 9 -12 12 -9 5 5 -8 0 -8 -19 0 -14 7 -25 16 -25 20 0
5 -4 5 -10 2 -5 -3 -10 0 -10 7 0 10 -2 10 -9 0 -11 -17 -21 -17 -32 0 -7 11
-9 11 -9 -1 0 -11 -3 -11 -15 -1 -8 7 -15 8 -15 4 0 -5 -22 -9 -50 -8 -30 0
-51 -4 -54 -12 -2 -6 -15 -9 -30 -7 -14 3 -23 9 -20 14 3 5 1 9 -5 9 -6 0 -7
7 -4 17 4 9 2 14 -3 11 -13 -8 -31 14 -28 35 1 9 -3 15 -9 14 -7 -1 -11 3 -10
10 2 8 -4 10 -15 6 -9 -3 -14 -3 -10 2 4 4 -1 20 -12 35 -11 15 -16 30 -12 34
4 4 0 6 -8 4 -10 -2 -14 3 -12 15 2 10 -3 17 -14 17 -10 0 -15 3 -11 6 6 6 -2
19 -38 56 -11 11 -14 17 -6 13 9 -5 12 -3 9 5 -5 15 32 57 45 52 4 -1 3 7 -3
18 -8 15 -8 20 1 20 6 0 9 7 5 15 -3 8 -1 15 4 15 5 0 14 10 21 21 9 17 8 20
-3 14 -10 -6 -10 -5 -1 5 9 9 9 19 2 33 -8 13 -8 17 -1 13 6 -4 10 2 9 14 -1
11 -6 20 -12 20 -5 0 -3 5 5 10 13 9 13 10 0 10 -9 0 -11 3 -5 8 12 8 15 63 3
56 -4 -3 -8 0 -8 5 0 6 5 11 12 11 6 0 3 7 -8 15 -10 8 -14 15 -9 15 6 0 4 4
-3 9 -7 4 -14 15 -16 24 -3 22 -36 57 -54 57 -9 0 -13 3 -9 6 8 8 -16 33 -25
27 -5 -2 -8 1 -8 8 0 7 -3 9 -6 6 -4 -4 -15 3 -26 15 -10 12 -21 18 -25 15 -3
-4 -13 -1 -21 6 -13 9 -14 9 -8 0 4 -7 2 -13 -3 -13 -6 0 -11 4 -11 9 0 5 -7
12 -16 15 -9 4 -13 2 -8 -5 4 -8 1 -8 -13 0 -14 7 -23 7 -31 -1 -9 -9 -12 -9
-12 0 0 10 -5 10 -20 2 -14 -7 -20 -8 -20 0 0 6 -12 2 -27 -7 -21 -14 -25 -15
-18 -3 7 12 6 13 -7 3 -8 -7 -18 -10 -21 -6 -4 3 -7 1 -7 -5 0 -7 -6 -12 -14
-12 -8 0 -21 -9 -29 -20 -8 -11 -17 -17 -20 -13 -4 3 -7 1 -7 -5 0 -18 -32
-44 -47 -38 -8 3 -11 1 -8 -4 3 -6 1 -10 -4 -10 -6 0 -11 7 -11 16 0 8 -4 13
-9 9 -5 -3 -12 -1 -16 5 -4 6 -11 8 -16 5 -5 -4 -9 -1 -9 5 0 7 -7 10 -15 6
-8 -3 -15 0 -15 7 0 7 -9 13 -20 14 -23 2 -52 27 -43 37 4 3 -5 6 -20 6 -14 0
-29 5 -32 10 -4 6 -11 7 -17 4 -8 -5 -9 -1 -4 12 4 10 4 15 0 11 -4 -4 -13 -2
-21 4 -7 6 -13 8 -13 3 0 -4 -7 1 -16 12 -8 10 -13 13 -9 7 4 -9 1 -11 -9 -7
-9 3 -13 10 -10 15 3 5 -4 9 -15 9 -12 0 -21 5 -21 11 0 5 -4 8 -9 4 -5 -3
-17 2 -26 11 -13 13 -13 19 -3 32 10 12 10 14 1 8 -7 -4 -13 -2 -13 3 0 6 5
11 11 11 6 0 9 9 6 20 -4 14 0 20 11 21 14 0 13 2 -3 9 -11 5 -15 9 -8 9 8 1
9 10 3 31 -5 17 -5 30 0 30 8 0 -4 67 -14 77 -3 4 0 13 7 21 9 13 9 14 0 8 -9
-5 -13 0 -13 13 0 12 -5 21 -11 21 -5 0 -7 5 -4 10 3 6 -1 13 -9 16 -9 3 -13
10 -10 16 6 9 -46 64 -58 60 -4 -1 -10 7 -13 18 -3 10 -19 25 -35 32 -17 7
-30 16 -30 19 0 4 -7 10 -16 13 -10 4 -13 2 -8 -7 4 -6 -4 -2 -17 10 -20 18
-28 20 -39 10 -10 -10 -11 -9 -5 2 6 11 3 13 -13 9 -12 -4 -20 -3 -17 2 3 4
-2 11 -11 14 -10 4 -13 2 -8 -7 5 -9 4 -9 -6 0 -9 9 -19 9 -33 2 -11 -6 -17
-7 -14 -2 3 5 -9 9 -28 9 -19 0 -31 -4 -29 -8 5 -8 -5 -11 -38 -11 -10 0 -18
-3 -18 -8 0 -4 -9 -6 -20 -4 -11 2 -18 0 -15 -5 5 -9 -11 -23 -30 -26 -29 -4
-54 -18 -48 -27 4 -6 0 -8 -10 -4 -10 4 -16 2 -14 -6 1 -7 -4 -11 -11 -9 -8 1
-11 -2 -7 -8 3 -5 -1 -13 -9 -16 -9 -3 -13 -10 -10 -16 11 -17 -31 -3 -44 15
-8 10 -21 16 -30 15 -9 -2 -17 2 -17 9 0 6 -4 15 -9 20 -5 5 -6 3 -2 -4 4 -7
2 -13 -3 -13 -6 0 -11 5 -11 11 0 6 -7 8 -15 5 -9 -3 -18 1 -21 9 -4 8 -13 15
-20 15 -8 0 -17 6 -20 14 -3 9 -12 12 -21 9 -11 -4 -14 -2 -9 5 4 7 1 12 -7
12 -8 0 -17 7 -21 15 -3 8 -10 15 -16 15 -6 0 -8 -6 -4 -12 5 -10 4 -10 -6 -1
-10 9 -9 17 3 42 9 17 11 29 6 26 -13 -9 -11 9 3 23 9 9 9 12 0 12 -7 0 -12 5
-12 11 0 5 4 8 8 5 5 -3 9 2 9 10 0 9 -6 13 -14 10 -9 -4 -11 -2 -6 6 11 19
11 48 0 41 -6 -4 -8 1 -4 11 4 10 3 15 -3 11 -6 -3 -10 3 -10 15 0 12 -4 19
-9 16 -5 -3 -12 5 -15 19 -4 14 -11 25 -17 25 -6 0 -7 5 -3 12 4 7 3 8 -5 4
-6 -4 -14 0 -17 8 -3 9 -12 16 -20 16 -8 0 -14 5 -14 10 0 6 -9 10 -21 10 -11
0 -18 4 -15 9 3 4 -6 13 -19 19 -15 7 -26 8 -30 2 -4 -6 -14 -6 -27 1 -15 8
-19 8 -14 0 4 -6 2 -11 -3 -11 -6 0 -11 5 -11 10 0 7 -6 7 -20 0 -15 -8 -20
-8 -20 1 0 8 -5 7 -17 -2 -12 -11 -17 -11 -20 -2 -3 9 -11 6 -26 -7 -12 -11
-25 -19 -31 -17 -12 4 -76 -60 -76 -76 0 -8 -3 -8 -9 2 -6 9 -11 10 -15 2 -4
-6 -4 -11 0 -11 4 0 -1 -7 -12 -16 -10 -8 -13 -13 -6 -9 6 3 12 1 12 -4 0 -6
-6 -11 -13 -11 -8 0 -13 -11 -13 -27 1 -16 -4 -27 -11 -26 -12 3 -12 -14 0
-34 6 -9 2 -13 -10 -13 -12 0 -14 -3 -6 -8 7 -4 13 -22 15 -40 1 -18 6 -32 11
-32 5 0 3 -8 -4 -17 -8 -10 -9 -14 -2 -10 6 4 14 3 18 -3 3 -5 1 -10 -5 -10
-6 0 -8 -5 -5 -10 4 -6 11 -8 16 -5 5 3 6 0 4 -8 -3 -7 3 -24 15 -37 11 -13
20 -19 21 -14 0 5 4 -1 10 -14 5 -14 13 -20 20 -16 7 4 9 3 5 -4 -3 -5 0 -13
6 -16 10 -3 8 -9 -4 -19 -10 -8 -15 -17 -11 -21 4 -4 3 -10 -2 -14 -6 -4 -16
-18 -23 -31 -11 -19 -11 -22 0 -16 7 3 5 0 -4 -8 -10 -8 -15 -17 -11 -20 3 -4
1 -7 -6 -7 -8 0 -11 -7 -7 -15 3 -10 -1 -15 -12 -16 -11 0 -13 -2 -4 -6 10 -4
9 -10 -5 -26 -10 -11 -12 -17 -5 -13 11 7 11 4 0 -15 -7 -13 -20 -30 -28 -37
-13 -12 -13 -13 0 -7 9 4 8 1 -3 -8 -14 -11 -15 -16 -5 -20 9 -4 7 -6 -4 -6
-12 -1 -15 -6 -11 -18 5 -12 3 -14 -8 -8 -11 6 -11 5 -2 -5 16 -17 -26 -54
-44 -38 -7 5 -17 7 -24 3 -6 -4 -15 -1 -20 6 -7 12 -9 12 -9 0 0 -9 -7 -6 -20
9 -11 13 -20 27 -20 32 0 5 -4 6 -10 3 -5 -3 -10 -1 -10 5 0 6 -5 8 -12 4 -6
-4 -8 -3 -5 3 4 5 -9 22 -28 38 -19 15 -35 34 -35 43 0 8 -3 13 -6 9 -8 -8
-44 25 -38 35 3 4 1 8 -4 8 -5 0 -24 15 -43 32 -19 18 -38 32 -42 30 -5 -1 -6
2 -2 8 3 5 1 10 -5 10 -6 0 -9 4 -6 9 4 5 1 11 -4 13 -6 2 -13 17 -16 33 -3
16 -2 27 1 23 4 -4 13 -1 20 5 10 9 10 15 1 26 -8 11 -8 13 1 8 8 -5 16 6 24
32 7 22 15 38 19 36 4 -2 6 6 5 18 -1 12 2 28 8 35 6 8 6 16 -2 25 -6 8 -8 17
-4 21 12 12 11 76 -1 76 -7 0 -7 3 -1 8 15 10 18 55 3 46 -7 -5 -8 -3 -3 6 5
8 1 19 -11 28 -16 13 -17 14 -1 9 16 -6 16 -4 3 22 -9 16 -12 32 -8 36 4 3 0
5 -8 3 -8 -1 -14 3 -12 10 1 6 -2 12 -8 12 -5 0 -7 7 -3 15 3 10 0 15 -8 13
-8 -2 -13 3 -11 10 1 6 -3 12 -9 12 -6 0 -8 7 -5 16 3 8 2 13 -3 10 -5 -3 -17
5 -27 19 -10 13 -21 22 -26 19 -4 -3 -8 2 -8 10 0 9 -9 16 -20 16 -11 0 -23 7
-26 15 -4 8 -10 13 -14 10 -5 -3 -11 -1 -15 5 -3 5 -15 10 -26 10 -10 0 -19 6
-19 13 0 8 -4 7 -10 -3 -8 -12 -10 -12 -10 -1 0 8 -3 11 -6 8 -4 -3 -15 -2
-25 4 -13 6 -19 6 -19 -1 0 -5 -5 -10 -11 -10 -5 0 -8 4 -5 8 2 4 -4 8 -15 8
-10 0 -19 -4 -19 -8 0 -5 -9 -4 -20 2 -14 7 -20 7 -20 0 0 -5 -5 -10 -11 -10
-5 0 -8 4 -5 8 3 5 -15 6 -39 2 -29 -4 -46 -3 -49 4 -3 7 -5 6 -5 -2z m1433
-624 c10 -14 16 -17 16 -8 0 10 5 8 16 -6 8 -10 13 -12 9 -4 -4 10 -2 9 8 -2
8 -10 19 -18 26 -18 6 0 11 -4 11 -10 0 -5 7 -7 15 -4 8 4 15 1 15 -7 0 -7 3
-10 6 -6 9 8 33 -16 26 -27 -3 -5 0 -6 6 -3 14 9 43 -3 36 -14 -3 -5 2 -9 10
-9 10 0 16 -9 16 -22 0 -19 2 -20 10 -8 5 8 10 11 10 7 0 -4 -8 -19 -17 -34
-20 -30 -24 -63 -9 -63 6 0 4 -5 -4 -10 -12 -8 -12 -10 -1 -10 11 0 11 -3 1
-15 -10 -12 -10 -15 0 -15 10 0 10 -3 0 -15 -10 -12 -10 -15 1 -15 11 0 11 -2
-1 -10 -13 -9 -13 -10 0 -10 9 0 11 -3 5 -8 -5 -4 -11 -13 -13 -21 -2 -11 0
-12 10 -3 11 8 14 7 15 -6 2 -36 15 -77 25 -83 6 -4 8 -14 5 -22 -4 -11 -1
-14 9 -10 8 3 14 -1 14 -10 0 -8 8 -21 17 -28 15 -12 16 -12 8 1 -5 9 -5 12 1
7 5 -5 9 -12 9 -16 0 -12 32 -41 45 -41 6 0 8 -4 5 -10 -5 -9 15 -15 38 -11 4
0 7 -3 7 -9 0 -5 7 -10 15 -10 8 0 15 -4 15 -9 0 -5 7 -12 16 -15 10 -4 13 -2
8 7 -6 8 -3 8 9 -1 9 -8 21 -11 27 -7 5 3 10 2 10 -4 0 -6 7 -8 15 -5 10 4 15
0 15 -12 0 -12 3 -15 8 -8 9 14 73 24 65 11 -3 -5 0 -8 8 -5 19 6 39 -16 39
-44 0 -13 7 -36 15 -51 8 -15 10 -25 5 -22 -6 3 -7 -1 -4 -9 3 -9 9 -14 13
-12 3 2 6 -12 7 -32 0 -20 6 -38 13 -40 9 -3 9 -8 -1 -20 -10 -12 -10 -14 0
-8 12 7 17 -10 13 -43 -2 -7 2 -10 7 -7 5 3 12 -3 15 -14 3 -13 1 -18 -5 -13
-7 4 -8 1 -2 -8 14 -23 10 -43 -11 -64 -30 -30 -52 -60 -37 -51 13 8 13 -19
-1 -41 -4 -6 -1 -13 5 -16 10 -3 9 -8 -2 -22 -14 -17 -13 -18 3 -12 11 4 16 3
12 -3 -7 -12 12 -50 38 -72 11 -10 17 -24 13 -33 -3 -8 0 -15 7 -16 9 0 8 -2
-1 -6 -10 -4 -10 -8 -1 -19 6 -8 7 -14 2 -14 -10 0 -9 -47 1 -57 3 -3 -2 -12
-10 -20 -8 -8 -12 -18 -9 -23 3 -5 1 -11 -5 -15 -6 -4 -7 -12 -3 -18 13 -20
14 -49 2 -41 -8 4 -8 1 -1 -13 6 -11 7 -25 2 -33 -5 -8 -6 -18 -3 -24 4 -5 -1
-7 -11 -3 -10 4 -19 1 -22 -7 -3 -8 -13 -13 -22 -11 -9 1 -23 -2 -29 -8 -9 -6
-13 -5 -13 4 0 8 -9 4 -21 -11 -11 -14 -18 -19 -14 -13 4 9 1 11 -9 7 -9 -3
-13 -10 -10 -15 3 -5 -3 -9 -12 -9 -10 0 -15 -2 -12 -5 3 -3 -12 -24 -34 -45
-21 -22 -36 -40 -33 -40 4 0 -1 -7 -9 -16 -19 -18 -21 -38 -3 -28 6 4 4 -2 -6
-13 -11 -12 -16 -31 -13 -52 3 -26 1 -31 -13 -27 -11 4 -10 2 3 -9 11 -8 14
-15 8 -15 -7 0 -11 -6 -10 -12 2 -7 -3 -12 -9 -10 -7 1 -13 -2 -13 -7 0 -6 -9
-8 -20 -6 -11 2 -18 0 -15 -6 5 -8 -15 -14 -37 -10 -5 0 -8 -4 -8 -10 0 -5 -5
-7 -12 -3 -8 5 -9 1 -5 -12 7 -18 7 -18 -8 0 -8 11 -15 16 -15 10 0 -5 -9 -15
-21 -22 -17 -11 -20 -11 -13 0 6 10 5 11 -8 1 -8 -7 -18 -10 -21 -6 -4 3 -7 1
-7 -6 0 -8 -6 -11 -16 -7 -10 4 -13 2 -8 -6 5 -7 0 -9 -14 -6 -14 4 -20 2 -16
-4 5 -7 -3 -9 -20 -6 -18 4 -29 1 -33 -8 -3 -8 -9 -11 -14 -8 -5 3 -9 1 -9 -4
0 -21 -28 -19 -52 3 -14 13 -29 21 -32 18 -3 -4 -6 -2 -6 4 0 6 -7 14 -16 17
-10 4 -13 2 -8 -6 5 -7 3 -8 -7 -2 -24 14 -51 16 -43 2 5 -9 2 -9 -9 1 -9 7
-17 9 -17 3 0 -10 -38 -26 -55 -22 -5 1 -7 -2 -3 -6 4 -4 -2 -15 -13 -25 -13
-11 -19 -25 -15 -34 3 -9 2 -13 -4 -10 -6 3 -10 -3 -10 -14 0 -11 -5 -23 -11
-27 -7 -4 -7 -10 -1 -16 6 -6 8 -17 5 -26 -4 -10 -2 -13 5 -8 6 3 13 2 17 -4
3 -5 0 -10 -7 -10 -10 0 -10 -2 -1 -8 19 -12 24 -72 7 -72 -8 0 -13 -6 -12
-12 2 -7 -3 -12 -10 -10 -8 1 -11 -1 -8 -6 5 -9 -34 -93 -55 -118 -6 -7 -8
-18 -4 -24 3 -5 1 -10 -4 -10 -6 0 -11 -7 -11 -16 0 -8 -4 -12 -10 -9 -5 3
-10 3 -11 -2 -3 -29 -9 -48 -18 -51 -6 -2 -11 -10 -11 -18 0 -8 -5 -14 -11
-14 -6 0 -9 -6 -6 -14 4 -9 0 -13 -11 -11 -9 1 -23 -2 -29 -8 -9 -6 -17 -6
-25 1 -11 8 -33 9 -71 3 -5 0 -5 -6 -1 -13 4 -7 3 -8 -4 -4 -24 15 -139 -83
-128 -109 3 -9 2 -14 -2 -11 -4 2 -14 1 -22 -5 -9 -5 -10 -9 -4 -9 7 0 14 -18
16 -40 2 -22 1 -40 -2 -40 -7 0 -5 -50 4 -77 4 -13 15 -23 24 -24 10 0 12 -3
5 -6 -10 -3 -10 -7 0 -18 7 -7 15 -11 19 -8 4 2 5 -2 2 -10 -3 -9 3 -17 16
-20 14 -4 19 -10 14 -18 -5 -9 -2 -10 9 -6 10 3 17 2 17 -2 0 -5 20 -8 45 -8
25 1 45 -2 46 -8 0 -5 3 -4 6 3 3 9 16 11 39 6 22 -4 40 -2 51 7 14 12 16 12
9 -1 -4 -8 0 -6 8 4 9 11 16 17 16 13 0 -4 13 5 30 19 16 15 27 30 24 35 -2 4
5 13 16 19 11 6 18 15 15 20 -8 12 6 41 16 34 13 -7 7 19 -6 28 -6 5 -5 8 3 8
7 0 10 4 7 10 -7 11 39 25 54 16 5 -4 14 1 19 11 9 14 13 15 26 4 13 -11 17
-11 22 3 3 9 10 14 14 11 5 -3 12 0 16 6 4 8 9 7 15 -2 7 -11 9 -11 9 1 0 13
1 13 10 0 6 -9 13 -11 18 -5 8 11 25 17 57 19 11 0 23 5 26 10 4 4 22 9 40 10
19 1 40 5 48 10 10 7 12 5 7 -5 -4 -8 -1 -7 6 3 10 12 19 13 31 7 12 -7 17 -6
17 3 0 10 2 10 9 0 7 -11 9 -11 14 1 8 20 96 22 103 2 3 -8 10 -12 15 -9 8 5
13 -9 10 -28 0 -5 5 -8 11 -8 9 0 8 -4 -2 -10 -9 -6 -11 -10 -3 -10 7 0 10 -7
7 -15 -4 -8 -11 -12 -17 -8 -6 4 -8 0 -4 -10 4 -10 1 -17 -6 -17 -8 0 -8 -3 2
-9 10 -6 10 -13 2 -28 -5 -11 -7 -23 -4 -27 3 -3 0 -6 -8 -6 -11 0 -11 -2 1
-10 10 -6 11 -10 2 -10 -6 0 -11 -3 -10 -7 0 -5 -2 -16 -7 -26 -4 -9 -5 -29
-3 -42 3 -14 1 -25 -5 -25 -5 0 -3 -8 4 -17 8 -9 9 -14 2 -10 -7 4 -14 -1 -18
-14 -4 -13 -2 -24 5 -29 8 -5 7 -9 -5 -14 -9 -3 -13 -10 -10 -16 3 -5 2 -10
-3 -10 -11 0 -12 -32 0 -47 6 -7 1 -18 -13 -32 -14 -13 -18 -21 -10 -21 11 0
11 -3 1 -15 -7 -8 -9 -15 -5 -15 4 0 0 -12 -10 -26 -14 -21 -14 -28 -4 -34 10
-7 10 -11 0 -24 -10 -12 -10 -16 -2 -16 9 0 8 -5 -2 -14 -9 -9 -12 -26 -9 -42
4 -20 2 -25 -8 -19 -10 6 -12 1 -8 -19 3 -14 2 -26 -2 -26 -5 0 -6 -10 -2 -22
5 -19 2 -21 -27 -15 -18 4 -30 3 -27 -1 2 -4 -7 -7 -20 -7 -13 0 -24 3 -24 7
0 4 -7 4 -17 1 -12 -5 -14 -3 -9 8 4 8 1 6 -8 -5 -8 -10 -20 -15 -27 -10 -8 4
-10 3 -5 -4 5 -8 -1 -12 -16 -12 -46 0 -66 -4 -62 -12 3 -4 -2 -8 -11 -8 -8 0
-18 -7 -21 -15 -4 -8 -13 -15 -21 -15 -8 0 -12 -4 -9 -9 5 -7 -36 -33 -59 -36
-16 -2 -55 37 -55 54 0 14 -1 14 -10 1 -7 -11 -10 -11 -10 -2 0 7 -4 10 -10 7
-5 -3 -10 1 -10 10 0 9 -4 14 -9 11 -5 -3 -12 1 -15 10 -3 8 -10 13 -14 10 -5
-3 -15 4 -22 15 -8 10 -20 19 -28 19 -7 0 -10 5 -7 10 3 6 -2 10 -12 10 -10 0
-29 12 -43 27 -14 15 -18 23 -10 19 8 -4 4 1 -9 12 -23 18 -39 68 -19 56 11
-7 7 28 -4 36 -3 3 -8 12 -10 20 -5 22 -67 81 -79 75 -5 -4 -16 1 -25 9 -12
12 -20 13 -35 6 -14 -8 -19 -7 -19 2 0 6 -7 3 -15 -8 -8 -10 -15 -15 -15 -10
0 6 -7 1 -16 -10 -8 -10 -13 -12 -9 -4 4 10 2 9 -8 -2 -8 -10 -16 -15 -20 -12
-3 3 -8 -5 -12 -18 -4 -13 -13 -26 -19 -30 -7 -5 -7 -8 3 -8 10 0 11 -3 2 -14
-8 -10 -9 -16 -1 -21 7 -4 7 -12 0 -24 -5 -10 -6 -21 -3 -25 3 -3 1 -6 -6 -6
-7 0 -9 -4 -6 -10 3 -6 -1 -7 -9 -4 -10 4 -18 -1 -22 -11 -4 -9 -13 -14 -20
-11 -8 3 -13 0 -11 -7 1 -7 -4 -11 -10 -10 -7 2 -13 -4 -13 -12 0 -8 -6 -12
-14 -9 -9 3 -21 -5 -31 -20 -12 -18 -24 -24 -39 -22 -11 3 -25 5 -29 5 -5 1
-6 5 -2 10 5 9 -32 27 -47 23 -5 -1 -8 4 -8 12 0 13 -42 35 -47 25 -1 -2 -9 5
-17 16 -9 11 -16 16 -16 10 0 -5 -4 -4 -9 4 -5 8 -29 16 -52 18 -23 2 -49 9
-58 16 -8 6 -12 7 -8 1 3 -6 0 -11 -8 -11 -8 0 -12 4 -9 9 3 4 -4 8 -15 8 -10
0 -21 -5 -23 -11 -2 -6 -26 -11 -56 -11 -28 1 -54 -3 -57 -8 -3 -5 -13 -6 -22
-3 -11 4 -14 3 -9 -5 5 -8 2 -10 -8 -6 -9 3 -16 1 -16 -6 0 -6 -4 -9 -10 -5
-5 3 -18 -3 -29 -14 -11 -11 -22 -17 -25 -13 -3 3 -6 0 -6 -6 0 -7 -7 -12 -15
-12 -8 0 -15 -7 -15 -16 0 -8 -4 -13 -9 -10 -5 3 -16 -6 -25 -19 -9 -14 -20
-24 -24 -21 -4 3 -9 -4 -9 -15 -1 -10 -9 -26 -17 -35 -9 -8 -16 -20 -16 -26 0
-6 -8 -17 -17 -24 -12 -9 -14 -13 -5 -14 10 0 9 -4 -3 -16 -12 -12 -13 -20 -5
-29 8 -10 7 -16 -6 -23 -10 -6 -15 -16 -11 -26 4 -9 1 -16 -6 -16 -8 0 -6 -4
3 -10 13 -9 13 -10 0 -10 -13 0 -13 -1 0 -10 11 -7 11 -10 2 -10 -7 0 -11 -4
-7 -9 3 -5 1 -12 -5 -16 -5 -3 -10 0 -10 7 0 10 -2 10 -9 -1 -5 -7 -13 -11
-19 -7 -5 3 -13 -2 -16 -11 -6 -15 -8 -15 -17 -3 -8 13 -10 13 -19 0 -8 -13
-11 -12 -25 5 -9 11 -14 14 -10 8 6 -12 -6 -18 -28 -14 -4 1 -21 -6 -37 -14
-27 -14 -30 -14 -39 3 -10 16 -10 15 -11 -3 0 -16 -2 -17 -9 -6 -8 12 -12 12
-25 2 -12 -10 -16 -10 -16 -2 0 7 -3 10 -7 8 -5 -2 -18 6 -31 19 -12 13 -20
24 -16 24 3 0 1 6 -5 13 -6 8 -8 17 -4 20 3 4 -1 7 -10 7 -21 0 -66 62 -49 68
7 2 10 8 6 13 -3 5 2 12 10 15 9 3 16 10 16 16 0 5 -6 6 -12 2 -9 -5 -9 -3 1
9 7 9 17 14 22 12 4 -3 6 4 4 15 -2 11 1 20 6 20 6 0 8 4 4 9 -3 6 1 13 9 18
8 4 15 11 15 16 2 26 15 56 22 51 5 -3 9 1 10 8 2 31 8 51 19 58 6 4 12 16 13
28 0 11 4 19 7 17 3 -2 12 5 19 17 10 16 10 19 -1 12 -7 -4 -4 3 7 16 12 14
14 20 5 15 -13 -8 -13 -6 -1 8 7 9 17 14 22 12 4 -3 6 4 4 15 -2 11 1 20 6 20
6 0 7 5 4 10 -3 6 -1 10 5 10 6 0 8 5 5 10 -3 6 -1 10 5 10 6 0 8 5 5 10 -3 6
-1 10 5 10 6 0 8 5 5 10 -3 6 -1 10 6 10 7 0 9 3 6 7 -4 3 1 12 11 20 9 8 11
11 4 8 -11 -6 -12 -3 -3 14 7 11 15 21 20 21 4 0 8 7 9 15 1 8 3 22 4 30 1 8
5 12 10 9 7 -5 12 10 9 29 0 4 6 7 15 7 8 0 13 4 10 9 -4 5 3 7 14 4 11 -3 20
-8 20 -12 0 -3 16 -6 35 -6 19 0 35 5 35 10 0 6 4 4 9 -4 8 -12 12 -12 24 -2
12 9 16 9 19 -1 4 -10 8 -10 21 1 9 7 23 11 31 8 7 -3 24 4 37 16 13 12 25 21
26 20 9 -8 43 17 88 64 29 29 59 53 66 54 10 0 11 2 1 6 -6 2 -9 10 -5 16 4 7
8 14 8 17 3 21 18 49 24 46 4 -3 6 13 4 35 -2 30 0 39 9 34 7 -4 4 1 -6 9 -11
9 -15 16 -8 16 6 0 9 7 5 17 -5 12 -3 14 8 8 12 -8 12 -6 0 8 -8 10 -11 20 -8
24 4 3 2 15 -4 26 -8 14 -8 18 0 13 6 -4 11 -2 11 3 0 6 -4 11 -9 11 -5 0 -8
12 -6 26 1 15 -3 28 -11 31 -8 3 -11 9 -8 14 3 5 0 9 -5 9 -6 0 -11 5 -11 10
0 13 -37 50 -51 50 -5 0 -8 4 -5 9 3 5 -5 16 -19 25 -14 9 -25 24 -25 34 0 15
-2 15 -10 2 -7 -11 -10 -11 -10 -2 0 7 -4 11 -9 8 -5 -4 -11 -2 -13 4 -3 9
-35 20 -65 22 -7 1 -13 8 -13 15 0 8 -5 11 -10 8 -6 -4 -17 -2 -25 5 -10 8
-15 8 -21 -1 -5 -8 -3 -9 6 -4 9 5 11 4 6 -4 -4 -6 -12 -9 -17 -5 -5 3 -21 7
-35 10 -19 3 -24 1 -18 -8 5 -7 -5 -5 -20 6 -16 10 -26 14 -23 9 3 -5 -3 -15
-15 -22 -13 -8 -18 -9 -13 -1 8 13 -27 -5 -59 -30 -17 -13 -19 -13 -12 0 4 8
0 6 -8 -4 -9 -11 -16 -16 -16 -11 0 5 -6 1 -13 -10 -8 -10 -19 -15 -25 -11 -7
4 -23 -11 -40 -38 -16 -25 -32 -43 -35 -39 -4 3 -5 -4 -2 -15 2 -13 -1 -21 -8
-19 -7 1 -11 -4 -9 -10 1 -7 -2 -13 -6 -13 -4 0 -8 -10 -9 -22 -1 -11 -7 -24
-14 -28 -8 -6 -8 -9 0 -14 6 -4 11 -12 11 -18 0 -6 -3 -8 -7 -5 -3 4 -13 1
-21 -6 -11 -8 -14 -8 -9 0 4 6 3 14 -3 18 -5 3 -10 2 -10 -4 0 -6 -13 -9 -30
-7 -16 2 -30 -1 -30 -5 0 -5 -4 -9 -10 -9 -5 0 -7 7 -3 16 5 14 3 14 -16 2
-18 -11 -23 -11 -31 2 -6 10 -10 11 -10 3 0 -7 -11 -12 -25 -11 -14 1 -25 6
-25 11 0 4 -5 5 -10 2 -6 -4 -7 -11 -4 -17 4 -6 0 -6 -13 1 -11 6 -23 7 -27 4
-3 -3 -6 1 -6 10 0 10 -4 17 -10 17 -5 0 -10 5 -10 11 0 6 -6 17 -14 25 -8 8
-19 14 -25 14 -6 0 -11 3 -11 8 0 4 -9 13 -20 19 -17 11 -18 10 -13 -5 6 -14
4 -15 -9 -5 -8 7 -18 10 -21 6 -4 -3 -14 0 -24 8 -13 11 -15 11 -9 1 6 -10 2
-13 -16 -11 -16 3 -34 -6 -53 -25 -17 -16 -23 -25 -15 -22 8 4 6 0 -5 -9 -11
-9 -19 -21 -18 -26 2 -5 -1 -9 -6 -9 -6 0 -6 -12 -1 -30 6 -20 5 -30 -2 -30
-6 0 -5 -7 3 -17 12 -15 12 -16 -1 -8 -9 5 -7 -1 5 -14 19 -22 19 -23 2 -36
-10 -7 -19 -17 -20 -22 -1 -4 -5 -7 -9 -6 -5 2 -7 -3 -5 -10 1 -6 -4 -11 -10
-10 -7 2 -14 -2 -14 -7 -1 -6 -2 -13 -3 -18 0 -4 -11 -18 -23 -32 -13 -13 -23
-30 -23 -37 0 -7 -7 -13 -15 -13 -8 0 -14 -6 -12 -12 1 -7 -4 -12 -10 -11 -8
2 -13 -9 -13 -30 0 -24 -3 -28 -10 -17 -8 13 -10 12 -10 -4 0 -11 -3 -17 -6
-14 -3 4 -15 -3 -27 -15 -13 -13 -22 -17 -25 -9 -2 7 -10 12 -18 12 -8 0 -14
6 -14 13 0 9 -2 9 -9 -1 -6 -11 -10 -10 -15 4 -6 16 -9 16 -17 4 -8 -11 -12
-12 -16 -2 -2 6 -9 10 -14 6 -5 -3 -9 -2 -9 3 0 4 -18 9 -40 9 -26 1 -37 -3
-33 -10 3 -6 0 -5 -8 2 -17 16 -49 16 -49 0 0 -9 -4 -8 -10 2 -8 12 -10 12
-10 -5 0 -17 -2 -17 -10 -5 -9 13 -14 8 -12 -11 1 -4 -8 -5 -18 -2 -12 3 -20
0 -20 -6 0 -7 -4 -10 -9 -6 -5 3 -13 0 -16 -6 -4 -5 -14 -8 -22 -5 -8 3 -11 2
-8 -3 3 -5 0 -13 -7 -18 -13 -8 -18 -9 -38 -12 -5 0 -10 -7 -10 -13 0 -7 -13
-22 -29 -33 -16 -10 -28 -22 -25 -26 2 -4 -3 -10 -12 -13 -9 -4 -14 -13 -10
-21 3 -9 -1 -18 -9 -21 -8 -4 -12 -10 -9 -15 3 -5 0 -9 -6 -9 -6 0 -9 -4 -5
-9 3 -5 0 -13 -6 -17 -8 -4 -7 -9 2 -15 10 -6 7 -10 -11 -18 -14 -5 -20 -10
-14 -10 16 -1 25 -39 12 -48 -7 -4 -8 -1 -3 7 5 9 4 11 -4 6 -9 -6 -9 -11 0
-22 9 -11 8 -15 -5 -20 -9 -3 -14 -9 -12 -13 3 -4 -4 -8 -15 -8 -11 -1 -17 1
-15 5 3 4 -4 8 -14 8 -10 0 -17 -4 -14 -7 2 -4 0 -10 -6 -14 -5 -3 -10 -1 -10
6 0 8 -3 9 -13 0 -8 -6 -17 -8 -20 -4 -4 3 -7 1 -7 -5 0 -7 -5 -12 -11 -12 -5
0 -7 5 -3 12 4 7 3 8 -5 4 -20 -13 -100 -12 -106 2 -2 6 -11 12 -20 12 -8 0
-14 3 -14 8 4 22 -2 42 -11 37 -5 -3 -10 1 -10 10 0 9 -4 14 -8 11 -4 -2 -17
9 -27 25 -11 16 -28 29 -38 29 -10 0 -20 6 -23 14 -3 8 -12 12 -20 9 -9 -3
-14 1 -14 12 0 9 -5 13 -11 9 -7 -4 -9 0 -5 14 4 11 2 23 -4 27 -8 5 -8 11 1
21 9 11 9 14 -1 14 -10 0 -9 5 3 18 11 12 13 22 6 34 -8 14 -7 16 5 12 13 -5
15 11 6 36 -6 14 -4 36 3 47 4 6 3 14 -3 18 -8 5 -8 11 1 21 9 11 8 14 -2 14
-8 0 -4 8 9 21 12 11 27 17 34 13 7 -4 8 -3 4 4 -3 6 3 16 14 22 12 6 18 16
13 23 -4 7 2 5 12 -3 10 -8 16 -10 12 -4 -7 12 15 77 24 72 2 -2 -2 2 -9 8
-11 10 -11 13 0 16 10 4 11 8 1 20 -7 8 -10 18 -6 21 3 4 1 7 -7 7 -10 0 -10
4 1 17 8 9 9 14 3 10 -6 -3 -11 1 -11 9 0 8 6 13 14 10 7 -3 12 -2 12 2 -3 17
1 35 7 29 7 -7 42 26 37 36 -2 4 1 7 6 7 6 0 11 5 11 11 0 14 52 69 60 64 3
-2 7 6 7 17 1 12 7 26 14 32 9 8 10 7 5 -4 -4 -8 -1 -6 6 4 7 10 21 26 31 35
9 8 17 21 17 28 0 7 5 13 10 13 6 0 15 11 22 25 6 13 15 22 19 19 9 -5 13 10
10 30 -1 5 5 6 14 2 9 -3 14 -2 11 3 -7 11 33 57 46 53 5 -1 7 2 3 8 -3 5 -1
10 4 10 6 0 10 3 10 8 -4 21 3 32 18 32 9 0 14 3 11 6 -4 3 7 18 24 34 16 16
27 33 24 39 -4 5 -1 13 5 17 8 5 9 3 4 -7 -5 -8 3 -3 18 11 15 14 27 31 27 38
0 6 5 12 11 12 6 0 9 6 6 13 -3 9 7 12 36 10 22 -1 46 -4 54 -7 7 -3 13 0 13
6 0 6 3 8 7 5 3 -4 12 1 20 11 9 10 12 11 7 2 -4 -8 7 0 24 19 18 18 29 37 26
42 -3 5 0 9 7 9 8 0 9 3 0 14 -9 10 -8 16 4 26 8 7 12 17 8 24 -9 13 -10 18
-12 49 -1 18 -3 20 -12 7 -9 -12 -10 -11 -6 8 4 15 0 22 -10 22 -8 0 -11 5 -8
10 3 6 1 11 -4 11 -20 3 -26 4 -38 12 -6 4 -14 1 -16 -5 -3 -8 -6 -6 -6 5 -1
13 -7 16 -26 13 -14 -3 -25 0 -25 5 0 6 -5 7 -12 3 -6 -4 -8 -3 -4 4 3 6 2 13
-4 17 -6 4 -8 11 -5 16 4 5 1 9 -5 9 -6 0 -8 5 -5 10 3 6 1 10 -4 10 -6 0 -11
7 -11 15 0 8 -5 15 -12 15 -6 0 -8 3 -5 6 3 4 2 15 -4 25 -8 15 -2 26 30 58
22 22 36 43 33 47 -4 4 1 4 12 0 13 -5 17 -2 13 9 -4 8 0 21 8 29 8 7 11 16 8
20 -4 3 -1 6 6 6 7 0 9 5 6 10 -3 6 -1 10 5 10 6 0 8 5 5 10 -3 6 -2 10 4 10
5 0 8 11 6 25 -1 14 2 25 8 25 5 0 4 6 -2 14 -10 11 -7 17 11 30 12 9 17 16
10 16 -9 0 -10 5 -2 19 7 14 7 22 0 26 -8 5 -8 11 -1 19 7 9 4 17 -11 30 -17
15 -18 20 -7 27 12 7 12 9 0 9 -8 0 -11 7 -8 20 3 11 1 18 -4 14 -5 -3 -9 4
-9 15 0 10 -5 21 -11 23 -5 2 -11 12 -13 23 -2 11 -12 25 -24 31 -12 6 -19 14
-15 17 3 4 -1 7 -11 7 -9 0 -14 5 -11 10 3 6 1 10 -5 10 -6 0 -8 5 -5 10 4 6
3 10 -2 9 -16 -4 -43 13 -36 24 3 6 1 7 -5 3 -6 -4 -20 1 -30 11 -10 10 -27
20 -37 21 -11 2 -22 8 -23 13 -2 5 -8 7 -13 4 -4 -3 -23 1 -40 10 -17 9 -28
12 -25 6 4 -6 2 -11 -3 -11 -6 0 -11 5 -11 11 0 5 -5 7 -10 4 -5 -3 -10 1 -10
9 0 9 -6 16 -12 16 -9 0 -8 4 2 10 8 5 11 10 6 10 -5 0 -3 6 3 14 9 11 9 16 0
22 -8 5 -9 3 -4 -6 5 -9 4 -11 -4 -6 -6 4 -8 13 -4 19 11 17 10 40 -2 56 -8
12 -7 13 4 6 11 -6 13 -4 8 10 -4 9 -2 25 5 33 9 11 9 14 1 9 -6 -4 -14 -3
-18 3 -3 5 -2 10 3 10 5 0 8 19 7 42 -2 49 4 80 15 73 5 -3 16 3 26 12 10 10
20 17 23 17 24 -5 119 85 125 119 3 12 5 24 6 27 2 3 2 8 1 13 0 4 4 7 11 7 6
0 8 3 5 7 -4 3 -2 12 4 20 9 10 8 13 -1 13 -10 0 -10 3 -1 14 9 10 9 16 1 21
-8 5 -8 11 1 21 6 8 7 14 2 14 -19 0 -6 45 15 56 12 6 19 14 14 19 -4 4 1 5
10 2 12 -4 21 1 29 15 9 17 13 18 20 7 7 -11 9 -10 9 4 0 10 4 16 9 13 12 -8
42 4 36 14 -5 7 31 23 48 21 4 -1 7 3 7 9 0 5 7 7 15 4 10 -4 13 -2 10 8 -5
11 2 14 25 13 16 -1 28 0 25 3 -3 3 0 11 6 19 10 11 15 11 27 1 13 -11 14 -11
7 1 -6 11 -4 13 9 8 14 -6 17 -3 12 9 -4 12 -2 15 9 10 8 -3 15 -1 15 4 0 5 7
6 17 3 11 -4 14 -3 9 5 -7 11 7 17 29 12 6 -1 15 -3 20 -4 6 -1 10 -5 10 -10
0 -5 10 -12 23 -17 12 -5 22 -14 22 -22 0 -7 10 -14 22 -14 13 -1 28 -9 34
-17 6 -9 14 -13 17 -9 4 3 7 1 7 -7 0 -10 3 -10 16 1 13 10 17 10 23 0 7 -10
13 -10 30 -2 14 8 21 8 21 1 0 -12 22 -9 33 5 4 6 10 5 16 -3 4 -8 11 -13 15
-13 20 3 38 0 33 -5 -3 -3 3 -16 14 -27 11 -12 15 -23 9 -25 -6 -2 -2 -15 10
-32 11 -15 20 -35 20 -44 0 -9 7 -19 16 -23 13 -5 13 -7 2 -14 -9 -6 -10 -9
-1 -9 7 0 10 -7 6 -17 -5 -12 -3 -14 7 -8 10 6 12 3 8 -13 -4 -12 -2 -25 4
-28 5 -3 7 -13 4 -21 -4 -9 -2 -11 6 -7 8 5 9 2 5 -10 -4 -10 -3 -15 3 -11 6
3 10 -1 10 -9 0 -9 4 -16 9 -16 6 0 9 -9 8 -20 -1 -11 -7 -20 -14 -20 -7 0
-13 -5 -13 -11 0 -5 -4 -8 -9 -4 -5 3 -12 -4 -16 -14 -4 -13 -12 -18 -21 -14
-10 4 -15 1 -13 -8 3 -19 -11 -50 -21 -44 -4 3 -11 -2 -14 -11 -4 -9 -2 -13 5
-8 6 3 3 -5 -6 -20 -10 -14 -13 -26 -9 -26 5 0 3 -4 -5 -9 -16 -10 -21 -70 -7
-78 4 -3 2 -10 -5 -15 -11 -8 -12 -10 -1 -15 10 -4 9 -10 -5 -26 -10 -11 -13
-17 -7 -14 7 4 18 -1 25 -10 12 -14 12 -16 -1 -8 -10 5 -9 1 3 -13 11 -11 16
-25 13 -30 -3 -4 4 -16 15 -25 10 -9 19 -24 19 -32 0 -9 5 -13 10 -10 6 3 10
-1 10 -10 0 -11 5 -15 15 -11 11 4 15 0 13 -12 -2 -9 3 -16 10 -14 6 1 12 -5
12 -14 0 -8 5 -12 10 -9 6 3 10 2 10 -4 0 -6 6 -8 14 -5 9 4 21 -6 31 -27 15
-29 15 -31 1 -26 -14 6 -14 3 1 -20 17 -26 17 -27 -2 -19 -16 6 -18 5 -7 -5
14 -15 17 -43 3 -35 -5 4 -8 -2 -7 -11 2 -10 -2 -21 -8 -25 -8 -6 -8 -8 0 -8
8 0 9 -11 4 -37 -5 -20 -6 -42 -2 -47 3 -6 -3 -4 -13 4 -13 10 -16 11 -11 2
10 -16 15 -72 6 -72 -5 0 -10 -22 -13 -63 -1 -12 -7 -17 -19 -14 -10 3 -18 0
-18 -6 0 -8 -3 -8 -8 -2 -9 13 -42 16 -42 4 0 -5 -7 -5 -17 -2 -12 5 -14 3 -8
-8 6 -11 5 -11 -4 -3 -14 13 -54 7 -46 -6 3 -5 -5 -6 -17 -2 -13 3 -19 1 -15
-6 5 -6 -2 -9 -19 -7 -19 2 -24 -1 -19 -12 3 -11 1 -13 -10 -9 -10 4 -38 -17
-82 -62 -37 -37 -71 -66 -75 -65 -4 2 -5 -6 -3 -17 3 -14 -2 -20 -13 -20 -15
0 -15 -2 -2 -10 8 -5 10 -10 4 -10 -6 0 -14 -14 -18 -31 -4 -20 -10 -28 -18
-23 -10 5 -10 4 -1 -6 10 -11 9 -16 -5 -27 -16 -14 -16 -14 2 -8 19 6 19 5 2
-14 -18 -20 -20 -33 -13 -98 2 -18 -2 -35 -7 -37 -6 -2 -4 -5 4 -5 11 -1 17
-13 18 -38 2 -21 8 -40 14 -44 6 -4 7 -12 3 -19 -4 -6 1 -18 11 -26 11 -9 13
-12 6 -9 -11 6 -11 3 -1 -13 7 -12 17 -18 21 -16 4 3 8 -2 8 -11 0 -9 10 -26
23 -37 12 -11 16 -17 10 -13 -7 3 -13 1 -13 -4 0 -6 7 -11 15 -11 8 0 27 -12
42 -26 15 -14 35 -32 44 -40 9 -8 21 -14 27 -14 7 0 12 -5 12 -12 0 -6 3 -8 7
-5 3 4 12 2 20 -4 10 -9 13 -8 13 2 0 8 5 6 14 -6 9 -12 20 -16 35 -12 14 3
24 0 28 -9 3 -8 14 -14 25 -14 10 0 17 4 14 8 -3 5 1 9 9 9 8 0 12 -4 10 -7
-3 -4 6 -7 20 -7 16 0 22 4 18 11 -5 7 -2 7 8 -1 17 -14 44 -12 61 5 16 16 31
15 22 0 -4 -7 2 -5 14 5 11 11 25 16 30 13 6 -3 13 1 16 10 4 9 9 14 13 10 3
-3 17 1 30 9 13 9 28 13 33 10 6 -3 10 1 10 10 0 9 5 13 10 10 6 -3 10 -1 10
5 0 6 14 26 32 43 18 18 28 26 23 18 -5 -10 -4 -12 3 -7 7 4 12 14 12 22 0 8
5 12 10 9 6 -3 10 3 10 14 0 11 5 23 10 26 6 4 8 10 5 15 -3 4 2 10 10 14 8 3
15 14 15 25 0 11 6 21 13 24 9 3 9 7 -2 20 -9 11 -10 17 -2 17 6 0 11 9 11 21
0 11 4 17 10 14 5 -3 8 0 5 7 -3 7 4 19 16 26 12 8 18 9 15 4 -8 -13 77 -10
86 3 5 7 8 6 8 -1 0 -12 59 -12 79 0 10 6 12 5 7 -3 -6 -8 -2 -11 10 -9 12 2
18 -2 16 -10 -1 -8 2 -11 7 -8 12 8 43 -23 35 -35 -3 -5 -2 -8 3 -7 4 1 17 -3
28 -8 26 -15 112 -17 120 -4 4 6 10 8 15 5 5 -3 14 3 19 14 12 21 48 21 43 0
-3 -10 0 -10 12 1 11 8 16 9 16 1 0 -6 9 -11 21 -11 11 0 18 -4 15 -9 -3 -5 6
-8 21 -8 15 0 29 -6 31 -13 3 -9 6 -9 13 1 7 11 9 10 9 -3 0 -11 6 -16 20 -13
11 2 20 -1 20 -7 0 -6 9 -8 20 -5 10 3 18 0 17 -5 -2 -9 18 -17 51 -20 6 -1
12 -5 12 -10 0 -5 4 -7 9 -3 5 3 13 0 17 -6 4 -8 3 -9 -4 -5 -15 9 -15 1 -2
-25 8 -14 7 -19 -2 -19 -8 0 -9 -3 -3 -8 6 -4 11 -23 13 -42 5 -68 7 -78 16
-72 5 3 6 -2 3 -12 -4 -9 -3 -15 2 -12 5 3 12 -6 15 -19 4 -14 11 -23 17 -19
6 3 13 -3 15 -13 3 -10 14 -25 26 -32 16 -10 19 -10 13 1 -5 7 2 4 13 -7 39
-37 52 -46 52 -35 0 5 5 10 10 10 6 0 10 -6 10 -13 0 -8 7 -14 15 -14 8 0 15
5 15 11 0 6 5 4 10 -4 8 -13 13 -13 31 -2 16 10 24 11 29 3 4 -8 17 -7 43 4
20 8 37 12 37 8 0 -5 7 1 15 11 8 11 15 17 15 13 0 -4 10 2 23 14 12 11 32 25
44 30 15 5 21 14 17 24 -3 8 -1 15 5 15 7 0 17 13 22 30 7 18 15 27 22 23 8
-4 8 -2 0 8 -10 13 -10 19 2 35 17 23 19 38 3 28 -7 -4 -8 -3 -4 5 12 19 17
61 7 61 -5 0 -8 11 -7 24 2 17 -1 23 -10 19 -8 -3 -14 0 -14 6 0 6 6 11 13 12
10 0 10 2 0 6 -7 2 -13 10 -13 16 0 6 -10 21 -22 34 -12 13 -16 23 -10 23 7 0
12 7 12 15 0 8 7 15 17 15 9 0 14 3 10 6 -3 4 15 27 42 53 27 26 51 57 55 69
4 12 12 20 17 17 5 -4 9 -2 9 2 0 5 17 26 38 48 20 21 30 35 22 31 -8 -5 -3 3
13 18 15 15 27 32 27 38 0 6 3 9 6 5 8 -7 34 17 34 32 0 6 5 11 10 11 6 0 10
7 10 16 0 8 5 12 10 9 6 -3 10 -2 10 4 0 6 7 8 15 5 8 -4 12 -10 9 -15 -3 -5
2 -6 10 -3 9 3 16 2 16 -3 0 -5 12 -10 27 -11 15 -1 29 -5 32 -10 3 -4 14 -8
25 -10 13 -2 16 1 10 10 -6 11 -5 11 8 0 17 -14 53 -13 77 2 10 6 12 5 7 -2
-10 -16 16 -15 33 1 11 9 13 9 7 0 -9 -16 40 -18 49 -3 3 6 15 10 26 10 10 0
19 5 19 11 0 5 5 7 10 4 6 -3 10 -1 10 5 0 6 5 8 10 5 6 -3 10 -1 10 5 0 6 5
8 10 5 6 -3 10 -1 10 4 0 6 6 10 13 8 6 -1 11 3 10 8 -1 11 21 35 34 36 5 1 7
5 6 10 -2 4 6 13 17 19 12 7 17 16 13 27 -4 11 -3 14 5 9 11 -6 17 5 13 26 0
5 4 7 10 5 6 -1 14 11 16 28 2 16 8 35 14 41 5 6 6 14 2 17 -3 4 -1 7 7 7 8 0
9 4 4 13 -5 6 -9 23 -8 37 7 82 4 110 -10 110 -6 0 -4 5 4 10 10 6 11 10 3 10
-7 0 -13 11 -13 24 0 14 -5 28 -12 32 -7 5 -8 3 -3 -6 5 -8 4 -11 -3 -7 -5 4
-8 16 -5 27 3 11 0 20 -6 20 -6 0 -11 5 -11 11 0 15 -26 39 -34 32 -3 -4 -6
-1 -6 6 0 16 -26 42 -34 34 -3 -4 -6 1 -6 10 0 9 -7 17 -15 17 -8 0 -15 5 -15
11 0 6 -9 9 -20 6 -11 -3 -18 -1 -15 3 5 8 -33 26 -47 22 -5 -1 -8 2 -8 8 0 5
-11 10 -25 10 -14 0 -37 0 -51 0 -23 0 -25 2 -13 17 13 15 12 15 -9 4 -12 -6
-27 -9 -32 -6 -6 4 -13 -1 -16 -10 -6 -13 -8 -14 -15 -3 -7 11 -9 11 -9 -1 0
-11 -3 -11 -15 -1 -9 7 -15 8 -15 2 0 -5 -9 -8 -20 -5 -11 3 -20 0 -20 -6 0
-6 -9 -11 -20 -11 -11 0 -20 -5 -20 -11 0 -5 -4 -7 -10 -4 -5 3 -10 1 -10 -5
0 -6 -4 -8 -10 -5 -5 3 -10 0 -10 -7 -1 -9 -5 -7 -14 4 -7 10 -16 15 -19 11
-4 -3 -7 1 -7 11 0 10 -5 14 -11 11 -6 -4 -9 -1 -7 7 1 7 -12 27 -30 44 -17
17 -32 37 -32 43 0 7 -4 10 -9 7 -5 -3 -15 2 -22 11 -12 14 -12 16 1 8 13 -8
13 -5 -1 15 -9 14 -26 29 -38 35 -12 5 -19 16 -16 23 3 7 0 10 -5 7 -6 -3 -10
-1 -10 4 0 6 -7 11 -16 11 -8 0 -12 5 -9 10 3 6 2 10 -3 10 -10 0 -8 42 2 59
4 5 1 13 -5 17 -8 5 -9 3 -4 -6 6 -9 4 -11 -4 -5 -9 5 -9 11 -3 17 6 6 8 17 5
26 -4 10 -2 13 5 8 8 -5 10 -2 6 8 -3 9 -11 13 -18 9 -6 -4 -5 1 3 10 9 11 10
17 2 17 -6 0 -10 6 -9 13 2 6 -3 11 -11 9 -8 -2 -11 3 -8 11 3 8 0 20 -6 27
-9 10 -9 11 1 6 7 -4 12 -1 12 8 0 9 5 16 11 16 6 0 8 7 5 16 -4 10 -2 13 6 8
8 -5 9 -2 5 9 -4 10 0 20 11 26 11 7 12 11 4 11 -7 0 -10 5 -7 10 4 6 12 7 18
4 7 -4 9 -3 4 1 -4 5 0 19 9 33 12 18 12 22 3 17 -8 -4 -3 3 11 15 14 12 19
18 11 14 -10 -5 -12 -3 -5 7 9 15 11 20 13 43 0 7 12 25 26 40 13 14 21 26 18
26 -3 0 1 8 8 17 12 15 12 16 -1 8 -11 -6 -12 -5 -4 4 17 18 66 24 75 9 6 -9
9 -9 9 -1 0 7 17 11 49 9 27 -1 47 2 45 6 -5 7 10 12 29 9 4 0 7 4 7 11 0 6 3
9 6 6 3 -3 19 7 37 23 38 35 61 37 81 7z m-1029 -159 c-2 -11 0 -17 5 -14 6 4
15 -5 21 -19 7 -14 16 -23 20 -20 5 3 13 -6 19 -20 6 -18 14 -24 25 -20 9 4
15 3 14 -2 -4 -16 13 -44 23 -38 5 3 12 -4 15 -16 4 -13 11 -19 20 -15 11 4
13 1 9 -10 -3 -10 1 -18 12 -22 23 -9 62 -49 55 -57 -4 -3 1 -6 11 -6 9 0 14
-4 11 -10 -3 -5 -1 -10 5 -10 20 0 37 -25 32 -45 -2 -11 -5 -30 -6 -42 0 -13
-5 -23 -11 -23 -5 0 -3 -5 5 -11 12 -8 12 -12 2 -16 -10 -4 -9 -9 4 -24 16
-18 16 -21 -1 -53 -11 -19 -22 -33 -26 -30 -4 2 -13 -4 -20 -13 -12 -14 -12
-16 1 -9 8 4 1 -4 -17 -18 -18 -15 -30 -33 -27 -40 3 -8 -6 -23 -20 -33 -14
-11 -22 -23 -19 -27 3 -3 1 -6 -6 -6 -7 0 -10 -4 -7 -9 3 -5 -2 -15 -11 -22
-14 -12 -16 -12 -9 1 4 8 -4 2 -17 -13 -22 -26 -26 -28 -46 -16 -11 8 -21 17
-21 20 0 3 -10 5 -22 5 -13 -1 -29 2 -35 7 -8 6 -13 6 -13 0 0 -10 -72 -9 -89
1 -5 4 -13 1 -17 -5 -5 -8 -3 -9 6 -4 9 5 11 4 6 -4 -6 -9 -11 -9 -22 0 -10 8
-14 8 -14 0 0 -6 -9 -11 -19 -11 -11 0 -23 -5 -26 -11 -4 -6 -13 -8 -21 -5 -8
3 -13 2 -12 -2 1 -4 -21 -30 -48 -58 -51 -51 -51 -51 -80 -36 -28 15 -29 15
-14 -4 14 -18 14 -18 -6 -1 -11 9 -26 17 -32 17 -7 0 -12 5 -12 10 0 6 -9 10
-20 10 -11 0 -20 6 -21 13 0 9 -2 9 -6 -1 -4 -10 -9 -9 -20 5 -8 10 -11 11 -7
3 7 -13 5 -13 -9 -2 -9 8 -21 11 -27 7 -6 -4 -9 -1 -8 7 2 8 -6 13 -19 12 -13
-1 -20 3 -16 9 4 6 0 8 -10 4 -8 -3 -21 1 -27 9 -7 8 -19 14 -27 14 -8 0 -11
5 -7 11 4 8 0 8 -15 0 -17 -9 -20 -9 -15 3 4 10 -2 13 -26 10 -17 -2 -29 0
-26 5 3 5 -4 11 -15 14 -12 3 -18 10 -15 16 4 5 1 13 -5 17 -8 4 -9 3 -5 -4 4
-7 3 -12 -3 -12 -10 0 -6 68 4 78 3 3 0 11 -6 18 -7 8 -7 14 1 19 8 5 8 11 -1
21 -6 7 -9 21 -5 29 4 10 2 14 -5 9 -7 -4 -10 -1 -7 7 3 8 -2 20 -11 27 -13
11 -13 12 -1 7 8 -4 4 3 -9 14 -13 12 -19 21 -15 21 5 0 3 4 -5 9 -12 7 -12
13 -3 24 7 7 8 18 4 22 -4 5 -1 5 6 1 6 -4 12 -3 12 3 0 5 10 13 21 16 17 6
19 9 8 16 -11 7 -11 9 3 9 9 0 20 5 24 12 5 7 3 8 -7 3 -8 -5 -5 2 6 15 36 43
53 58 58 54 3 -3 8 0 13 7 4 8 3 10 -4 5 -7 -4 -12 -2 -12 3 0 6 5 11 10 11 6
0 10 7 10 16 0 8 4 13 8 10 5 -3 14 4 22 14 8 10 17 17 22 14 4 -3 5 1 2 9 -3
8 2 17 11 21 9 3 13 10 10 16 -3 5 1 10 9 10 9 0 15 4 14 8 -4 13 70 82 88 82
9 0 12 -5 8 -12 -5 -8 -2 -9 9 -5 9 3 22 1 29 -6 7 -7 22 -14 33 -15 45 -4 60
-10 57 -23 -1 -8 4 -5 13 5 8 11 15 15 15 9 0 -12 18 -12 37 0 6 4 15 2 19 -4
5 -8 3 -9 -6 -4 -9 6 -11 4 -5 -5 6 -10 11 -9 22 5 7 11 13 14 13 9 0 -5 9
-10 20 -11 13 -1 18 2 14 9 -5 7 -2 8 7 2 21 -13 40 -14 33 -2 -5 7 2 9 19 6
15 -3 24 -1 21 3 -3 5 2 9 10 9 9 0 16 4 16 8 0 4 8 8 19 9 10 1 31 13 46 27
31 29 57 21 50 -15z m1969 -380 c-2 -4 3 -10 12 -13 9 -3 12 -2 8 5 -3 6 3 5
15 -3 12 -7 21 -16 21 -20 0 -4 7 -4 17 -1 10 4 14 2 10 -4 -4 -6 6 -16 24
-22 17 -6 28 -15 25 -20 -3 -5 3 -7 14 -4 11 3 20 0 20 -6 0 -6 7 -11 15 -11
8 0 15 -4 15 -10 0 -5 5 -10 11 -10 5 0 7 6 4 13 -4 6 1 3 9 -7 9 -11 24 -21
33 -22 10 -2 19 -8 21 -14 2 -5 8 -8 13 -4 5 3 9 0 9 -7 0 -7 3 -9 6 -6 4 4
15 -3 25 -15 20 -22 26 -43 10 -33 -6 3 -6 -6 -1 -25 6 -21 5 -28 -2 -24 -7 5
-9 -2 -4 -19 3 -14 1 -29 -4 -32 -8 -5 -8 -11 0 -20 8 -10 8 -19 1 -33 -6 -11
-8 -22 -4 -25 3 -4 -4 -5 -16 -2 -11 2 -21 0 -21 -5 0 -5 -7 -7 -15 -4 -8 4
-15 1 -15 -5 0 -6 -9 -11 -20 -11 -11 0 -20 -5 -20 -11 0 -5 -4 -7 -10 -4 -5
3 -10 1 -10 -6 0 -7 -3 -9 -7 -6 -3 4 -12 2 -20 -4 -7 -6 -13 -8 -13 -4 0 5
-10 0 -22 -11 -13 -12 -18 -13 -13 -4 6 11 3 10 -12 -3 -11 -9 -23 -14 -26
-10 -4 3 -7 1 -7 -5 0 -7 -10 -12 -23 -12 -13 0 -29 -6 -36 -12 -11 -10 -13
-10 -7 0 5 8 0 12 -13 12 -12 0 -21 7 -21 16 0 8 -5 12 -10 9 -6 -4 -18 -1
-27 7 -14 11 -15 11 -9 0 7 -11 4 -11 -12 -1 -12 7 -18 17 -16 21 3 4 0 8 -6
8 -6 0 -9 4 -6 9 4 5 1 11 -4 13 -6 2 -12 20 -13 41 -1 20 -6 37 -10 37 -5 0
-5 5 -2 10 3 6 1 10 -5 10 -7 0 -10 7 -6 15 3 8 1 15 -4 15 -6 0 -9 3 -9 8 4
22 -2 42 -11 37 -6 -3 -7 1 -4 9 3 9 11 13 18 10 6 -3 0 4 -14 16 -14 12 -19
19 -12 15 6 -3 12 -1 12 4 0 6 -6 11 -12 12 -10 0 -10 2 -1 6 10 3 10 8 -1 19
-22 21 -15 78 9 82 11 2 27 10 36 18 9 8 19 11 24 7 4 -5 5 -3 1 4 -4 7 2 17
14 23 11 6 18 15 15 21 -4 5 -1 10 4 10 26 3 30 4 36 10 8 8 55 -13 49 -22z
m-1421 -203 c3 3 8 -4 12 -15 3 -12 11 -19 16 -16 5 4 9 -1 9 -9 0 -9 5 -16
10 -16 6 0 10 -7 10 -15 0 -9 7 -18 15 -21 8 -4 12 -10 9 -15 -3 -5 1 -9 8 -9
7 0 28 -18 47 -40 35 -42 67 -95 51 -85 -6 4 -10 -3 -10 -14 0 -12 -4 -21 -10
-21 -5 0 -10 -7 -10 -16 0 -8 -4 -13 -9 -9 -6 3 -8 -4 -6 -15 2 -11 -1 -20 -6
-20 -6 0 -7 -4 -4 -10 3 -5 1 -10 -5 -10 -6 0 -10 -6 -9 -12 3 -26 -1 -49 -9
-44 -4 2 -8 -4 -8 -15 0 -10 4 -19 8 -19 4 0 5 -7 2 -15 -4 -8 -11 -12 -18 -8
-6 3 -3 -3 7 -14 10 -12 14 -24 9 -27 -10 -6 -9 -36 2 -54 4 -7 5 -19 3 -27
-3 -7 3 -21 13 -30 10 -9 16 -24 13 -36 -4 -12 0 -19 10 -19 8 0 21 -8 28 -17
10 -11 10 -14 2 -9 -21 12 -15 -5 10 -25 19 -16 20 -20 7 -28 -27 -16 -69 -59
-64 -64 3 -3 -3 -8 -13 -11 -10 -4 -25 -21 -34 -39 -9 -17 -22 -31 -29 -29 -6
1 -9 -2 -5 -8 3 -5 -1 -13 -9 -16 -9 -3 -16 -12 -16 -20 0 -7 -11 -21 -25 -30
-14 -9 -25 -20 -25 -26 0 -5 -21 -29 -46 -53 -25 -25 -47 -52 -48 -62 -3 -18
-46 -27 -46 -9 0 6 -5 4 -10 -4 -6 -10 -10 -11 -10 -2 0 6 -7 12 -15 12 -7 0
-19 8 -24 18 -6 9 -11 11 -11 5 0 -7 -7 -13 -16 -13 -9 0 -12 5 -8 13 4 6 -3
3 -16 -8 -13 -11 -20 -14 -16 -7 5 8 0 12 -14 12 -12 0 -18 -4 -15 -10 3 -6
-1 -7 -9 -4 -9 3 -13 11 -10 18 3 6 0 4 -8 -4 -7 -8 -24 -17 -38 -19 -14 -1
-27 -7 -30 -11 -3 -5 -12 -10 -20 -12 -8 -2 -25 -16 -37 -32 -13 -17 -23 -26
-23 -20 0 5 -5 1 -11 -9 -6 -9 -14 -15 -20 -12 -5 4 -9 0 -9 -7 0 -9 -3 -9
-10 2 -9 13 -10 13 -10 0 0 -12 -2 -12 -9 -2 -4 8 -12 14 -17 15 -5 1 -8 5 -7
10 2 4 -2 7 -7 7 -6 0 -10 -5 -10 -12 0 -6 -10 -3 -22 8 -12 10 -18 13 -14 6
7 -11 4 -11 -12 -1 -12 7 -19 16 -16 20 2 4 -1 11 -7 15 -7 4 -9 3 -5 -4 3 -6
2 -13 -4 -17 -5 -3 -10 -1 -10 4 0 6 -9 11 -20 11 -11 0 -20 5 -20 12 0 6 -3
8 -7 5 -3 -4 -17 0 -31 9 -18 12 -23 12 -17 3 3 -8 -1 -5 -9 5 -11 14 -16 15
-16 6 0 -9 -5 -7 -14 5 -8 11 -12 23 -10 27 3 4 -1 5 -9 2 -19 -7 -32 12 -16
22 8 5 9 3 4 -6 -6 -9 -4 -11 4 -5 9 5 6 14 -11 33 -13 14 -17 22 -11 18 9 -5
11 -2 7 9 -4 9 -8 14 -11 11 -2 -2 -15 7 -28 20 -13 13 -36 24 -50 24 -18 0
-24 4 -19 13 5 8 2 8 -9 -2 -12 -10 -17 -10 -17 -2 0 8 -6 7 -16 -3 -19 -19
-28 -21 -18 -3 4 6 -2 4 -13 -6 -11 -9 -22 -14 -25 -11 -4 3 -9 -4 -13 -15 -3
-11 -15 -23 -26 -26 -17 -6 -18 -9 -7 -23 8 -10 9 -13 1 -9 -6 4 -14 3 -17 -2
-7 -11 -25 -9 -45 3 -9 6 -12 5 -8 -1 4 -6 -4 -10 -18 -10 -16 0 -22 4 -18 11
4 6 -1 5 -11 -3 -15 -13 -19 -13 -26 0 -7 11 -12 11 -21 2 -9 -9 -16 -9 -25
-2 -8 7 -14 7 -19 -1 -9 -14 -28 -12 -51 6 -10 8 -13 13 -6 9 18 -9 15 6 -5
22 -11 9 -12 11 -3 7 13 -6 13 -4 -1 12 -8 10 -16 30 -17 44 -1 14 -6 26 -12
28 -5 2 -8 8 -4 13 3 5 0 9 -5 9 -6 0 -11 7 -11 15 0 9 -7 18 -15 21 -8 4 -12
10 -9 15 3 5 0 9 -6 9 -7 0 -27 15 -45 34 -18 19 -36 32 -39 29 -3 -4 -6 -1
-6 5 0 7 -7 12 -16 12 -8 0 -12 5 -9 10 3 6 -3 10 -14 10 -12 0 -21 5 -21 11
0 6 -9 9 -20 6 -11 -3 -20 -1 -20 4 0 5 -7 9 -15 9 -9 0 -12 6 -9 15 4 9 0 15
-7 15 -10 0 -10 3 -3 8 21 13 35 50 23 58 -8 4 -7 9 2 15 9 5 10 9 2 9 -6 0
-9 9 -6 20 3 11 9 18 13 15 4 -3 6 18 4 46 -2 38 0 51 12 56 13 5 13 7 2 14
-11 7 -11 9 1 9 11 0 11 3 1 15 -7 8 -8 15 -3 15 6 0 9 11 8 25 -2 14 1 23 6
19 5 -3 9 3 9 14 0 14 7 19 31 20 18 0 36 5 42 11 5 5 15 7 22 5 7 -3 16 0 21
7 5 8 3 10 -6 4 -9 -5 -11 -4 -6 4 6 9 11 9 22 0 11 -9 14 -9 14 0 0 7 4 10 9
7 5 -4 11 -2 13 3 1 4 24 26 50 49 26 22 44 43 41 46 -4 3 3 6 15 6 12 0 22
-5 22 -11 0 -8 5 -8 15 1 10 9 15 9 15 1 0 -6 8 -11 19 -11 10 0 24 -7 32 -16
7 -8 21 -13 32 -10 10 2 16 2 13 -1 -7 -7 40 -33 60 -33 8 0 14 -5 14 -12 0
-6 3 -8 7 -5 3 4 13 1 21 -6 13 -9 14 -9 8 1 -10 17 -2 15 24 -8 26 -22 44
-26 35 -7 -4 6 0 4 8 -6 11 -14 16 -15 20 -5 3 8 6 6 6 -5 1 -10 5 -16 10 -12
5 3 12 1 16 -5 3 -5 17 -10 30 -10 24 0 36 -16 27 -37 -2 -7 -9 -10 -16 -6 -8
5 -8 3 0 -8 6 -8 14 -24 17 -37 5 -20 3 -22 -11 -10 -9 7 -7 1 5 -12 15 -17
19 -30 13 -39 -5 -9 -3 -23 6 -36 8 -12 11 -25 7 -28 -3 -4 -1 -7 5 -7 6 0 9
-9 7 -20 -2 -13 2 -20 11 -20 8 0 14 -9 14 -21 0 -11 5 -17 10 -14 6 3 10 -1
10 -9 0 -9 7 -16 16 -16 10 0 14 -5 10 -16 -3 -8 -2 -12 4 -9 6 3 10 1 10 -5
0 -6 5 -8 10 -5 6 3 10 1 10 -6 0 -7 3 -9 7 -6 3 4 12 -1 20 -11 10 -11 12
-12 8 -2 -4 9 0 7 9 -4 8 -10 19 -15 25 -11 6 3 11 0 12 -7 0 -10 2 -10 6 1 4
9 7 10 12 2 4 -6 22 -15 39 -21 22 -6 30 -5 26 1 -4 7 5 9 25 6 18 -3 31 -1
31 5 0 6 9 8 20 5 11 -3 20 0 20 6 0 6 3 7 7 4 3 -4 13 -1 21 6 10 7 13 7 9 1
-4 -7 8 -5 28 4 19 9 32 19 30 23 -3 4 3 13 12 20 14 12 16 12 8 -1 -5 -8 4
-4 20 8 16 13 35 37 42 53 8 19 17 28 24 23 8 -4 9 -3 5 5 -4 6 -2 19 6 28 11
14 11 16 -2 9 -8 -4 -7 -1 3 7 10 8 17 19 16 23 -4 22 2 35 14 29 6 -4 4 0 -6
8 -14 12 -15 20 -8 40 7 18 7 27 -2 31 -8 3 -9 7 -2 13 13 10 16 43 4 43 -5 0
-9 8 -9 18 0 10 -6 24 -12 31 -8 9 -9 12 -1 7 8 -4 8 0 0 19 -7 14 -16 25 -20
25 -5 0 -5 5 -2 10 3 6 -1 10 -9 10 -9 0 -16 7 -16 16 0 9 -5 13 -12 9 -7 -4
-4 1 7 10 11 9 20 21 20 28 1 7 6 11 13 10 6 -2 9 4 6 12 -4 9 4 19 20 27 16
7 25 17 22 25 -3 8 -1 11 4 8 6 -3 10 0 10 7 0 14 21 35 56 58 18 11 18 11 0
5 -16 -5 -15 -1 6 18 14 13 27 29 29 36 6 16 97 21 103 6 2 -5 5 -2 5 7 1 13
9 10 35 -17 19 -18 36 -31 39 -29z m-3379 -708 c-6 -10 -4 -10 7 0 16 15 33
16 23 0 -5 -7 -3 -8 7 -2 42 26 109 -2 116 -48 2 -13 11 -29 20 -35 9 -7 13
-13 8 -13 -5 0 0 -7 12 -15 21 -15 38 -55 22 -55 -5 0 -9 -6 -9 -14 0 -8 -9
-21 -20 -29 -11 -8 -17 -17 -14 -20 4 -4 -1 -9 -10 -13 -9 -3 -16 -13 -16 -21
0 -9 -5 -11 -12 -7 -8 5 -8 1 2 -12 8 -10 11 -16 6 -12 -12 10 -58 -40 -50
-54 4 -6 3 -8 -3 -5 -10 7 -28 -20 -25 -35 1 -5 -2 -7 -7 -5 -5 1 -10 -2 -12
-8 -5 -16 -23 -33 -31 -28 -4 2 -5 -3 -2 -11 3 -9 1 -16 -5 -16 -6 0 -10 -4
-9 -8 2 -4 -10 -20 -25 -34 -19 -18 -24 -28 -15 -31 9 -4 7 -6 -4 -6 -9 -1
-20 -6 -24 -13 -4 -7 -3 -8 4 -4 7 4 12 5 12 3 0 -3 -14 -14 -31 -25 -24 -15
-39 -18 -60 -12 -18 6 -31 5 -35 -2 -4 -7 -2 -8 4 -4 7 4 12 2 12 -3 0 -14
-17 -14 -25 0 -4 6 -13 8 -21 5 -8 -3 -14 0 -15 7 0 9 -2 9 -6 0 -2 -7 -14
-13 -24 -13 -13 0 -18 -4 -13 -12 4 -7 3 -8 -4 -4 -16 10 -82 -36 -82 -57 0
-11 -4 -15 -12 -11 -8 5 -9 2 -5 -9 4 -10 2 -17 -4 -17 -6 0 -9 -9 -6 -19 3
-15 1 -18 -11 -14 -11 5 -13 3 -6 -8 11 -18 12 -41 0 -56 -5 -9 -4 -13 4 -13
10 0 10 -3 0 -15 -10 -12 -10 -15 0 -15 9 0 9 -4 -1 -17 -10 -11 -10 -14 -1
-9 8 5 15 -1 21 -16 5 -13 16 -29 24 -36 17 -14 11 -56 -7 -45 -6 4 -5 -1 3
-10 12 -15 9 -21 -11 -18 -5 0 -9 -6 -9 -14 -3 -29 -4 -33 -13 -42 -5 -5 -6
-2 -1 6 6 10 4 12 -4 7 -7 -5 -10 -14 -7 -22 3 -8 0 -13 -6 -11 -5 1 -12 -6
-13 -17 -2 -10 -14 -30 -27 -44 -13 -14 -16 -22 -8 -18 8 4 4 -2 -10 -13 -14
-11 -19 -21 -12 -21 7 0 2 -10 -12 -23 -14 -13 -23 -27 -19 -30 3 -4 1 -7 -6
-7 -7 0 -9 -4 -6 -10 3 -5 -1 -10 -10 -10 -9 0 -14 -4 -10 -9 3 -5 1 -12 -5
-16 -5 -3 -10 -15 -10 -26 0 -11 -6 -22 -14 -25 -8 -3 -12 -12 -9 -20 3 -8 2
-14 -3 -13 -21 4 -28 -2 -14 -11 13 -8 13 -10 -2 -10 -10 0 -20 -10 -24 -25
-3 -14 -10 -23 -14 -20 -5 3 -10 -5 -12 -17 -2 -18 -12 -24 -40 -29 -21 -3
-38 -2 -38 3 0 5 -4 6 -10 3 -5 -3 -10 -2 -10 2 0 13 -44 11 -52 -1 -5 -7 -8
-6 -8 2 0 7 -4 11 -8 8 -5 -3 -10 9 -11 27 -4 55 -4 57 -14 57 -5 0 -7 8 -4
19 2 10 0 26 -6 36 -7 13 -6 16 2 11 6 -4 14 -1 17 8 3 8 12 17 20 20 10 4 13
1 9 -7 -4 -6 0 -4 8 6 8 9 19 17 24 17 5 0 19 11 31 25 13 14 26 24 30 21 5
-3 14 11 21 30 7 18 17 34 23 34 5 0 8 7 4 15 -3 8 0 14 6 12 6 -1 13 4 16 12
3 8 0 11 -7 7 -7 -5 -9 -1 -5 8 3 9 10 16 15 16 4 0 5 7 2 17 -5 11 -3 14 6 8
10 -6 11 -3 2 14 -9 16 -9 21 1 22 10 0 10 2 1 6 -7 2 -13 9 -13 14 0 6 6 7
13 3 9 -5 9 -4 0 6 -9 10 -10 17 -2 27 8 9 8 13 0 13 -6 0 -11 5 -11 11 0 5 4
7 10 4 6 -3 7 1 4 9 -3 9 -9 14 -14 11 -4 -2 -6 7 -4 20 1 14 -2 25 -7 25 -6
0 -7 5 -4 10 3 6 1 10 -5 10 -6 0 -8 5 -5 10 3 6 1 10 -5 10 -7 0 -9 7 -6 16
3 8 2 12 -4 9 -6 -3 -10 -1 -10 4 0 6 -7 11 -15 11 -9 0 -24 13 -33 30 -9 16
-26 31 -37 32 -11 2 -19 9 -17 16 1 8 -2 11 -8 7 -12 -7 -53 19 -43 28 3 4 0
7 -8 7 -10 1 -8 5 5 15 11 8 14 15 8 15 -7 0 -12 9 -12 21 0 13 4 18 13 13 9
-6 9 -4 -1 8 -18 23 5 60 32 52 12 -4 16 -2 12 5 -5 8 0 8 17 2 14 -6 28 -7
31 -4 3 4 16 7 29 8 12 2 21 7 20 13 -2 6 4 9 12 6 8 -4 12 -10 9 -16 -3 -5 3
-4 14 3 12 7 18 18 14 24 -3 5 3 3 13 -5 11 -9 16 -10 11 -2 -6 10 -1 14 20
11 3 0 16 11 29 25 16 17 25 21 28 13 3 -7 6 -4 6 6 1 9 4 16 9 15 9 -4 58 45
54 55 -1 4 5 7 14 7 8 0 12 5 9 10 -3 6 1 10 10 10 9 0 14 4 11 9 -3 5 1 12
10 15 11 4 15 14 12 31 -3 14 -1 23 6 22 6 -1 10 4 8 11 -1 6 3 12 9 12 5 0 8
4 4 9 -3 5 0 13 6 17 8 4 7 9 -2 15 -10 6 -11 9 -1 9 6 0 12 9 12 21 0 11 4
18 8 15 5 -3 9 1 9 9 0 8 -4 15 -9 15 -4 0 -8 5 -8 11 0 5 5 7 10 4 10 -6 11
-4 13 52 1 18 6 33 11 32 5 0 13 5 17 13 7 11 9 11 9 0 0 -11 3 -10 14 1 9 8
26 12 40 10 18 -4 26 -1 26 8 0 11 2 11 10 -1 9 -13 11 -13 20 0 9 13 10 13
10 0 1 -12 3 -12 14 3 15 19 31 23 20 5 -5 -9 -2 -9 9 1 14 11 17 11 18 0 0
-10 2 -10 5 -2 3 7 12 9 21 6 12 -5 14 -3 8 7 -6 9 0 12 27 8 20 -2 40 2 47 9
15 17 24 17 15 1z m3476 -2788 c0 -5 -2 -10 -4 -10 -3 0 -8 5 -11 10 -3 6 -1
10 4 10 6 0 11 -4 11 -10z m314 -62 c-3 -4 5 -12 18 -17 13 -5 34 -18 47 -30
13 -11 28 -18 32 -15 5 3 9 0 9 -6 0 -6 4 -9 9 -6 4 3 17 -2 29 -12 21 -18 23
-55 4 -88 -6 -10 -6 -29 -1 -46 6 -22 4 -30 -6 -35 -8 -3 -12 -9 -9 -14 3 -5
11 -7 17 -3 7 3 2 -3 -10 -14 -16 -14 -19 -22 -10 -31 8 -8 8 -11 0 -11 -8 0
-9 -9 -3 -30 5 -17 5 -30 0 -30 -5 0 -6 -7 -3 -17 4 -11 3 -14 -5 -9 -11 7
-17 -7 -12 -29 9 -41 8 -44 -7 -38 -12 5 -14 3 -8 -7 5 -9 4 -11 -4 -6 -6 4
-19 2 -28 -6 -9 -7 -18 -12 -20 -10 -9 6 -23 1 -20 -10 1 -6 -9 -17 -23 -25
-14 -7 -21 -13 -16 -13 5 0 3 -6 -3 -13 -6 -8 -8 -17 -4 -20 3 -4 2 -7 -4 -7
-6 0 -14 -7 -17 -16 -3 -9 -2 -12 5 -9 13 9 8 -27 -6 -37 -6 -5 -6 -8 2 -8 14
0 13 -40 -2 -40 -7 0 -7 -3 1 -8 5 -4 23 -24 39 -45 17 -23 34 -36 42 -33 8 3
11 1 8 -4 -3 -5 6 -12 21 -16 17 -4 22 -9 14 -14 -9 -5 -9 -9 -1 -14 6 -4 8
-13 4 -19 -11 -17 -11 -30 0 -44 6 -9 5 -13 -3 -13 -10 0 -10 -3 0 -15 10 -12
10 -15 -1 -15 -11 0 -11 -2 1 -10 12 -8 12 -10 1 -10 -11 0 -11 -3 -1 -15 7
-8 8 -15 3 -15 -5 0 -10 -7 -10 -15 0 -8 5 -15 11 -15 6 0 6 -4 -2 -12 -7 -7
-8 -17 -2 -28 6 -12 5 -23 -5 -36 -13 -18 -14 -18 -24 6 -5 14 -10 21 -10 15
-1 -5 -8 1 -17 13 -8 12 -18 20 -22 18 -4 -2 -21 7 -37 20 -22 18 -25 23 -10
19 11 -3 5 2 -12 10 -18 8 -33 21 -33 28 0 7 -8 17 -18 23 -13 8 -17 22 -16
50 1 22 3 39 4 39 10 0 5 38 -6 42 -8 3 -12 8 -9 12 4 7 -26 43 -62 72 -26 21
-53 30 -53 18 0 -6 -4 -8 -8 -5 -4 2 -9 22 -10 42 -2 21 -8 42 -15 46 -9 6 -8
8 3 9 10 0 11 2 2 6 -6 2 -9 9 -6 14 3 6 0 16 -6 24 -6 8 -9 18 -6 24 3 5 2
11 -3 13 -5 2 -5 13 0 27 8 20 12 21 25 10 12 -10 15 -10 12 2 -2 8 3 13 10
11 6 -1 12 5 12 14 0 8 5 12 11 8 13 -8 89 69 89 91 0 8 4 15 10 15 5 0 7 7 4
15 -4 8 -1 15 5 15 6 0 11 9 11 21 0 11 5 17 10 14 12 -7 9 17 -3 26 -4 3 -3
18 2 32 8 20 7 27 -2 28 -9 0 -8 2 1 6 10 4 9 9 -5 20 -10 8 -13 12 -7 9 7 -3
14 3 17 14 3 11 1 20 -5 20 -5 0 -6 5 -3 11 4 6 -1 17 -11 25 -11 9 -13 13 -4
9 8 -4 6 1 -4 9 -11 9 -14 16 -8 16 7 0 12 6 12 14 0 8 5 18 12 22 7 4 8 3 4
-4 -4 -7 -3 -12 2 -12 6 0 13 11 16 25 4 16 11 22 21 19 8 -4 15 -1 15 6 0 7
7 10 16 6 8 -3 12 -2 9 4 -3 5 3 8 14 7 11 0 17 -5 15 -9z"/>
<path d="M2531 6107 c-6 -8 -7 -18 -3 -22 4 -5 2 -5 -4 -2 -12 7 -66 -51 -59
-63 3 -5 -2 -11 -11 -14 -8 -3 -12 -11 -9 -16 4 -6 1 -18 -7 -27 -11 -14 -11
-16 1 -8 11 6 13 4 8 -8 -4 -10 -1 -17 5 -17 6 0 9 -3 5 -6 -3 -4 1 -13 9 -21
8 -8 11 -20 7 -26 -3 -7 -3 -9 2 -5 4 4 19 -5 33 -20 13 -15 21 -21 17 -13 -7
11 -3 11 14 -2 13 -8 30 -13 39 -10 11 5 13 3 7 -8 -7 -11 -6 -12 6 -3 8 6 24
10 37 8 13 -2 21 0 18 5 -4 5 7 12 24 16 17 4 28 10 25 15 -3 5 -1 11 5 15 6
4 8 11 4 16 -3 5 0 8 7 7 8 -2 13 7 13 22 1 14 6 28 11 32 6 5 6 8 -1 8 -6 0
-9 13 -6 30 3 20 -2 37 -12 49 -9 10 -13 21 -9 26 5 4 2 5 -4 1 -8 -4 -13 -1
-13 9 0 9 -4 14 -9 10 -5 -3 -16 2 -24 10 -19 18 -31 20 -21 3 6 -10 5 -10 -7
-1 -8 7 -31 10 -52 8 -20 -1 -34 1 -31 6 8 14 -2 11 -15 -4z"/>
<path d="M2379 4405 c-1 -5 -1 -13 -1 -16 1 -4 -8 -5 -19 -2 -20 6 -67 -13
-81 -32 -4 -5 -8 -7 -8 -3 0 4 -18 -11 -41 -33 -22 -21 -38 -43 -35 -48 3 -5
-1 -12 -10 -15 -10 -4 -13 -13 -9 -27 5 -13 3 -19 -3 -15 -13 8 -22 -17 -12
-35 5 -8 4 -19 -3 -28 -8 -10 -8 -13 -1 -8 8 4 11 -2 10 -18 0 -14 -5 -25 -11
-25 -5 0 -3 -5 5 -10 12 -8 13 -11 1 -19 -9 -6 -10 -11 -2 -15 6 -4 11 -16 11
-27 0 -10 5 -19 10 -19 6 0 9 -6 8 -12 -2 -7 3 -12 10 -10 8 1 11 -2 8 -7 -4
-5 1 -17 10 -25 8 -9 12 -16 7 -16 -4 0 3 -7 15 -16 12 -8 27 -12 32 -9 6 4 9
1 8 -6 -2 -7 2 -14 7 -14 25 -4 65 -26 65 -36 0 -8 4 -8 15 1 12 10 15 10 15
0 0 -10 3 -10 15 0 12 10 15 10 15 -1 0 -11 2 -11 10 1 9 13 10 13 10 0 0 -13
1 -13 10 0 9 13 10 13 10 0 0 -13 1 -13 10 0 9 13 10 13 10 0 0 -12 2 -13 9
-1 7 11 9 11 14 0 4 -11 6 -11 6 -1 1 7 6 10 11 7 6 -3 10 2 10 12 0 14 2 15
9 4 7 -11 13 -9 30 8 12 12 26 19 32 16 5 -4 8 -1 7 7 -2 7 3 12 10 10 8 -1
11 2 7 8 -3 5 1 13 9 16 9 3 16 13 16 21 0 8 5 11 10 8 9 -6 14 8 11 28 0 4 4
7 10 7 6 0 9 7 5 15 -3 8 0 14 6 12 6 -1 12 11 13 28 0 17 5 36 9 44 6 9 5 12
-1 8 -6 -4 -9 9 -8 36 2 49 -4 79 -15 72 -4 -3 -11 2 -14 11 -3 8 -2 12 4 9
21 -13 9 6 -27 42 -21 21 -37 41 -35 45 1 5 -1 7 -5 6 -5 -2 -9 2 -11 7 -4 14
-51 37 -61 30 -5 -3 -11 -1 -13 5 -1 5 -19 10 -38 11 -19 2 -41 7 -48 12 -9 7
-11 5 -5 -9 6 -17 5 -17 -10 -5 -9 7 -17 10 -17 5 0 -5 -5 -2 -10 6 -5 8 -10
11 -11 5z"/>
<path d="M5290 3026 c0 -2 8 -10 18 -17 15 -13 16 -12 3 4 -13 16 -21 21 -21
13z"/>
<path d="M4956 4973 c-6 -14 -5 -15 5 -6 7 7 10 15 7 18 -3 3 -9 -2 -12 -12z"/>
<path d="M5566 1913 c-6 -14 -5 -15 5 -6 7 7 10 15 7 18 -3 3 -9 -2 -12 -12z"/>
</g>
</svg>
